<?xml version="1.0" encoding="UTF-8" standalone="no"?>
<!-- Created with Inkscape (http://www.inkscape.org/) -->

<svg
   width="55mm"
   height="55mm"
   viewBox="0 0 55 55"
   version="1.1"
   id="svg1"
   xml:space="preserve"
   inkscape:version="1.3.2 (091e20e, 2023-11-25, custom)"
   sodipodi:docname="bee-logo-with-website.svg"
   xmlns:inkscape="http://www.inkscape.org/namespaces/inkscape"
   xmlns:sodipodi="http://sodipodi.sourceforge.net/DTD/sodipodi-0.dtd"
   xmlns:xlink="http://www.w3.org/1999/xlink"
   xmlns="http://www.w3.org/2000/svg"
   xmlns:svg="http://www.w3.org/2000/svg"><sodipodi:namedview
     id="namedview1"
     pagecolor="#ffffff"
     bordercolor="#000000"
     borderopacity="0.25"
     inkscape:showpageshadow="2"
     inkscape:pageopacity="0.0"
     inkscape:pagecheckerboard="0"
     inkscape:deskcolor="#d1d1d1"
     inkscape:document-units="mm"
     inkscape:zoom="2.7401931"
     inkscape:cx="107.29171"
     inkscape:cy="103.45986"
     inkscape:window-width="1920"
     inkscape:window-height="986"
     inkscape:window-x="-11"
     inkscape:window-y="-11"
     inkscape:window-maximized="1"
     inkscape:current-layer="g29" /><defs
     id="defs1"><linearGradient
   id="swatch28"
   inkscape:swatch="solid"><stop
     style="stop-color:#180000;stop-opacity:1;"
     offset="0"
     id="stop29" /></linearGradient><linearGradient
   id="linearGradient22"
   inkscape:swatch="gradient"><stop
     style="stop-color:#180000;stop-opacity:0;"
     offset="0"
     id="stop23" /><stop
     style="stop-color:#180000;stop-opacity:0;"
     offset="1"
     id="stop24" /></linearGradient><linearGradient
   id="swatch16"
   inkscape:swatch="solid"><stop
     style="stop-color:#240000;stop-opacity:0;"
     offset="0"
     id="stop16" /></linearGradient><linearGradient
   id="swatch15"
   inkscape:swatch="solid"><stop
     style="stop-color:#240000;stop-opacity:0;"
     offset="0"
     id="stop15" /></linearGradient><linearGradient
   id="swatch13"
   inkscape:swatch="solid"><stop
     style="stop-color:#000000;stop-opacity:1;"
     offset="0"
     id="stop14" /></linearGradient>
		
		
		
		
		
		
		
		
		
		
		
	
		
		
		
		
		
		
		
		
		
		
		
	</defs><g
     inkscape:label="Layer 1"
     inkscape:groupmode="layer"
     id="layer1"
     style="display:inline"><text
       xml:space="preserve"
       style="font-style:normal;font-variant:normal;font-weight:normal;font-stretch:normal;font-size:17.2043px;line-height:1.2;font-family:'Pain de Mie';-inkscape-font-specification:'Pain de Mie';letter-spacing:0px;word-spacing:0px;display:none;fill:#f0cb20;fill-opacity:1;stroke:#15777d;stroke-width:0.609599;stroke-linejoin:round;stroke-opacity:1"
       x="21.060219"
       y="61.569202"
       id="text1"><tspan
         sodipodi:role="line"
         id="tspan1"
         style="fill:#f0cb20;fill-opacity:1;stroke:#15777d;stroke-width:0.609601;stroke-opacity:1"
         x="21.060219"
         y="61.569202">CREATIVE</tspan></text><g
       id="g29"><g
         id="g1"
         transform="matrix(0.10840066,0,0,0.10840066,8.0214703,-83.035208)"
         style="display:inline"><path
           id="path3074-2_4_"
           opacity="0.5"
           fill="#15777d"
           d="m 345.286,1018.411 -44.295,10.879 c -2.989,12.09 -7.088,24.025 -13.676,35.336 -6.592,11.299 -14.969,20.748 -24.017,29.297 l 12.34,43.912 c -10.971,8.08 -22.828,14.646 -35.217,19.918 l -31.186,-32.527 c -24.236,7.029 -50.292,7.111 -75.269,-0.389 l -31.605,32.383 c -6.129,-2.686 -12.188,-5.646 -18.106,-9.096 -5.919,-3.451 -11.479,-7.27 -16.828,-11.279 l 12.618,-43.455 c -18.817,-18.045 -31.576,-40.764 -37.384,-65.316 l -43.673,-11.139 c -1.521,-13.369 -1.63,-26.928 0,-40.454 L 43.28,965.6 c 2.989,-12.088 7.099,-24.025 13.688,-35.323 6.589,-11.298 14.958,-20.76 24.006,-29.309 L 68.636,857.056 c 10.968,-8.078 22.827,-14.646 35.214,-19.918 l 31.196,32.537 c 24.227,-7.038 50.282,-7.109 75.259,0.379 l 31.605,-32.383 c 6.129,2.687 12.188,5.646 18.108,9.098 5.918,3.449 11.478,7.268 16.836,11.278 l -12.627,43.454 c 18.816,18.058 31.586,40.764 37.395,65.33 l 43.664,11.126 c 1.52,13.381 1.639,26.926 0,40.454"
           style="display:inline"
           inkscape:label="gear fill" /><g
           clip-path="none"
           id="g12"
           style="display:inline"
           inkscape:label="clipped bee">
		<path
   fill="#231f20"
   d="m 228.461,997.56 c -14.884,25.766 -46.904,35.125 -71.52,20.906 -24.617,-14.219 -32.507,-46.634 -17.624,-72.399 14.882,-25.767 46.902,-35.128 71.521,-20.908 24.618,14.219 32.505,46.634 17.623,72.401 z"
   id="path1"
   style="display:inline"
   inkscape:label="head" />
		<path
   id="path2"
   style="display:inline;fill:#f0cb20;fill-opacity:1"
   d="m 132.10675,985.24773 c -19.41998,0 -36.808173,13.75939 -53.160156,42.06837 -8.540022,14.7848 -15.138794,28.0199 -19.941407,39.9492 5.833059,9.4285 12.82009,18.2432 21.039063,26.125 l -12.617187,43.4551 c 5.348994,4.009 10.90913,7.8283 16.828125,11.2793 5.917994,3.45 11.976474,6.4097 18.105472,9.0957 l 31.60547,-32.3828 c 12.1487,3.6479 24.5513,5.468 36.87695,5.6015 10.04485,-8.6168 19.26545,-19.3557 26.7793,-32.3632 13.31098,-23.045 15.79952,-44.2729 7.39453,-63.0899 -8.166,-18.283 -25.00347,-30.8565 -37.68946,-38.18553 -13.64698,-7.88199 -24.83871,-11.55274 -35.2207,-11.55274 z"
   inkscape:label="body color" /><path
   id="path3"
   style="display:inline;fill:#231f20;fill-opacity:1"
   d="m 132.10675,980.24773 c -19.23198,0 -38.459253,11.62044 -57.490234,44.56637 -7.293338,12.6261 -13.732392,25.0631 -18.814454,37.0743 1.994556,3.5927 4.159702,7.0978 6.494141,10.5097 5.774101,-15.1849 13.817349,-30.1817 20.980469,-42.582 8.363992,-14.479 17.084928,-25.1023 25.919918,-31.57227 7.346,-5.38 14.84017,-7.9961 22.91016,-7.9961 9.46799,0 19.86376,3.45682 32.71875,10.88277 12.04599,6.958 28.00501,18.8346 35.625,35.8946 7.71399,17.271 5.30578,36.9708 -7.1582,58.5488 -7.75762,13.4286 -18.02146,25.1763 -30.10938,34.5664 5.05753,0.3478 10.10916,0.3589 15.14063,0.1289 8.88624,-8.3248 16.97992,-18.1836 23.6289,-29.6933 31.48697,-54.512 -0.43503,-89.7995 -32.125,-108.10551 -12.53798,-7.24099 -25.13071,-12.22266 -37.7207,-12.22266 z M 90.970031,1151.7419 c 3.763818,1.9487 7.554556,3.7974 11.390629,5.4785 l 4.41797,-4.5254 c -1.39239,0.08 -2.78884,0.168 -4.15625,0.168 -4.119563,0 -8.023613,-0.391 -11.652349,-1.1211 z"
   inkscape:label="neck" />
		<path
   id="path4"
   style="display:inline;fill:#231f20;fill-opacity:1"
   d="m 93.126281,1044.8903 c -7.872338,-0.084 -15.988633,1.2062 -24.734375,3.8574 l -8.392578,20.127 c 0.623548,0.9764 1.217002,1.9681 1.867188,2.9297 18.015221,-0.6906 30.436538,4.5926 51.494144,16.7558 19.56111,11.2998 33.2995,25.4179 42.19726,40.7911 3.40196,0.4322 6.80499,0.7232 10.20899,0.8906 l 15.37695,-12.6035 c -3.007,-27.096 -26.42318,-47.8412 -48.91016,-60.8282 -13.54561,-7.8256 -25.98686,-11.7805 -39.107419,-11.9199 z"
   inkscape:label="lower band" />
		<path
   fill="#231f20"
   d="m 159.694,1009.269 c -21.672,-12.518 -40.521,-15.128 -63.843,-8.059 l -9.684,23.225 c 19.783,-1.454 32.384,3.724 54.654,16.587 22.27,12.863 35.216,24.366 43.841,42.229 l 15.248,-18.09 c -3.008,-27.097 -17.73,-42.902 -40.216,-55.892 z"
   id="path5"
   style="display:inline"
   inkscape:label="upper band" />
		<path
   id="path6"
   style="display:inline;fill:#231f20;fill-opacity:1"
   d="m 78.526672,1098.6149 -11.099609,38.2305 c 5.348994,4.009 10.90913,7.8283 16.828125,11.2793 5.917994,3.45 11.976474,6.4097 18.105472,9.0957 l 25.93554,-26.5742 c -6.23224,-6.5631 -15.9926,-12.7431 -28.619137,-20.0371 -8.280211,-4.7833 -15.128532,-8.8595 -21.150391,-11.9942 z"
   inkscape:label="butt" />
		<path
   id="polygon6"
   style="display:inline;fill:#ffffff;fill-opacity:1"
   inkscape:label="left wing fill"
   d="m 58.741516,951.36688 -12.810547,4.67968 c -0.973295,3.16904 -1.859315,6.3535 -2.650391,9.55274 l -44.2929686,10.88086 c -1.6299984,13.52598 -1.5209985,27.08604 0,40.45504 l 43.6738276,11.1387 c 2.732868,11.5526 7.059556,22.6723 12.777344,33.1172 l 31.625,-15.832 26.404299,-23.2813 16.19531,-13.2031 17.66602,-14.60939 -1.34766,-6.79492 -21.82617,-18.96289 -26.541017,-11.98047 z" />
		<path
   id="path8"
   d="m 58.673156,945.68914 c -2.882997,0 -5.617924,0.16772 -8.169922,0.51172 -0.391422,0.0528 -0.81542,0.15353 -1.21289,0.21484 -1.393111,3.58768 -2.639428,7.20716 -3.728516,10.85743 7.27922,-1.51667 14.083612,-2.49795 19.658203,-2.98829 0.940999,-0.083 1.960923,-0.125 3.044922,-0.125 21.359979,-10e-4 68.696917,15.81846 78.253907,37.52344 -15.35049,20.85382 -72.542754,61.05582 -94.212891,63.52152 1.984937,4.1105 4.246558,8.0929 6.658203,11.9961 32.128346,-15.3243 77.739868,-55.6482 93.398438,-75.72856 -12.18299,-25.43197 -61.810486,-45.7832 -93.689454,-45.7832 z"
   style="display:inline;fill:#231f20;fill-opacity:1"
   inkscape:label="left wing" />
		<path
   id="polygon8"
   style="display:inline;fill:#ffffff;fill-opacity:1"
   inkscape:label="right wing fill"
   d="m 193.99152,1013.1774 -6.55664,2.2285 -3.83008,22.5996 -3.34571,20.625 -6.94726,37.4551 7.98242,29.3106 3.50586,4.4121 c 8.27014,-0.7855 16.45649,-2.2679 24.43555,-4.582 l 31.18554,32.5273 c 11.09016,-4.7193 21.71559,-10.5432 31.69922,-17.4941 l 3.19531,-2.6602 -0.0449,-1.0703 -11.97265,-42.6055 c 2.8094,-2.6545 5.51738,-5.4385 8.16406,-8.2949 l -2.60547,-14.9219 -23.89453,-31.0937 -29.98242,-20.0801 z" />
		<path
   id="path10"
   style="display:inline;fill:#231f20;fill-opacity:1"
   d="m 189.21027,1010.1579 c -0.909,0 -1.8026,0.032 -2.6836,0.1 -10.26654,25.3155 -22.21521,87.5791 -16.41406,120.1543 5.16139,0.084 10.3023,-0.1638 15.41406,-0.6777 -0.59854,-2.1584 -1.17816,-4.3394 -1.71875,-6.5567 -5.91799,-24.277 -7.43595,-66.622 5.45703,-107.7519 0.863,-0.094 1.74558,-0.1387 2.64258,-0.1387 24.83298,0 61.77906,35.049 70.37305,51.877 3.50475,6.8627 6.35006,13.2105 8.58203,19.1347 2.34392,-2.5001 4.59258,-5.1098 6.76562,-7.8047 -0.31141,-0.8853 -0.64046,-1.7596 -0.99218,-2.6172 -11.44199,-27.9029 -56.73982,-65.7187 -87.42578,-65.7187 z m 84.61718,121.2344 c -1.83376,4.6036 -4.47935,8.9063 -7.90429,13.0215 1.7703,-1.117 3.50089,-2.3032 5.23242,-3.4903 1.25043,-2.241 2.37858,-4.5621 3.40039,-6.9375 z"
   inkscape:label="right wing" />
		<path
   id="path11"
   d="m 265.41534,902.7282 c -0.42801,0.14579 -0.86411,0.29724 -1.34375,0.48438 -3.94099,1.539 -21.33255,11.37706 -25.31054,13.78906 -3.472,2.106 -22.94922,15.76172 -22.94922,15.76172 0,0 3.02472,7.9572 5.38672,5.2832 2.35999,-2.67299 21.26556,-16.25848 25.72656,-19.27148 4.002,-2.701 11.58664,-6.76157 15.55664,-7.72656 -2.676,6.25999 0.36935,14.10375 7.27734,18.09375 5.54491,3.20317 11.99805,3.01006 16.44141,-0.008 -5.72101,-9.52499 -12.65924,-18.40721 -20.78516,-26.40625 z"
   style="display:inline;fill:#231f20;fill-opacity:1"
   inkscape:label="right antenna" />
		<path
   id="path12"
   d="m 172.39386,864.41766 c -1.6297,-0.005 -3.25113,0.10513 -4.87695,0.16015 0.99548,3.93911 3.72538,7.65739 7.81836,10.02149 6.90799,3.99099 15.22259,2.71062 19.30859,-2.73438 1.147,3.92 1.41912,12.51699 1.07812,17.33399 -0.38,5.37099 -2.70384,28.53306 -3.83984,31.91406 -1.135,3.381 7.26953,2.02539 7.26953,2.02539 0,0 2.09555,-23.69486 2.18555,-27.75586 0.0964,-4.35103 -0.0413,-22.1091 -0.58203,-27.80859 -9.4053,-2.08235 -18.90946,-3.12752 -28.36133,-3.15625 z"
   style="display:inline;fill:#231f20;fill-opacity:1"
   inkscape:label="left antenna" />
	</g><path
           id="path15"
           fill="none"
           stroke="#15777d"
           stroke-width="8"
           stroke-linecap="round"
           stroke-linejoin="round"
           stroke-miterlimit="10"
           d="m 345.286,1018.411 -44.295,10.879 c -2.989,12.09 -7.088,24.025 -13.676,35.336 -6.592,11.299 -14.969,20.748 -24.017,29.297 l 12.34,43.912 c -10.971,8.08 -22.828,14.646 -35.217,19.918 l -31.186,-32.527 c -24.236,7.029 -50.292,7.111 -75.269,-0.389 l -31.605,32.383 c -6.129,-2.686 -12.188,-5.646 -18.106,-9.096 -5.919,-3.451 -11.479,-7.27 -16.828,-11.279 l 12.618,-43.455 c -18.817,-18.045 -31.576,-40.764 -37.384,-65.316 l -43.673,-11.139 c -1.521,-13.369 -1.63,-26.928 0,-40.454 L 43.28,965.6 c 2.989,-12.088 7.099,-24.025 13.688,-35.323 6.589,-11.298 14.958,-20.76 24.006,-29.309 L 68.636,857.056 c 10.968,-8.078 22.827,-14.646 35.214,-19.918 l 31.196,32.537 c 24.227,-7.038 50.282,-7.109 75.259,0.379 l 31.605,-32.383 c 6.129,2.687 12.188,5.646 18.108,9.098 5.918,3.449 11.478,7.268 16.836,11.278 l -12.627,43.454 c 18.816,18.058 31.586,40.764 37.395,65.33 l 43.664,11.126 c 1.52,13.381 1.639,26.926 0,40.454"
           style="display:inline"
           inkscape:label="gear outline" /><path
           fill="#231f20"
           d="m 281.495,908.586 c -6.536,-3.908 -7.8,-3.623 -11.761,-4.062 -2.105,-0.234 -4.983,-1.234 -9.817,0.58 -4.093,1.538 -21.227,12.143 -25.259,14.56 -3.52,2.11 -23.064,15.8 -23.064,15.8 0,0 4.167,8.023 6.422,5.339 2.253,-2.685 21.182,-16.306 25.672,-19.325 4.027,-2.708 11.775,-6.773 15.962,-7.732 -2.192,6.295 1.983,14.205 9.905,18.246 8.467,4.317 18.004,2.578 21.301,-3.885 3.296,-6.462 -1.205,-14.644 -9.361,-19.521 z"
           id="path13"
           style="display:inline"
           inkscape:label="right antenna" /><path
           fill="#231f20"
           d="m 188.516,852.168 c 6.579,3.836 6.937,5.08 9.235,8.339 1.222,1.731 2.546,3.628 3.292,8.737 0.631,4.327 0.552,24.591 0.383,29.289 -0.15,4.103 -2.705,27.825 -2.705,27.825 0,0 -9.037,0.225 -7.774,-3.045 1.263,-3.27 4.054,-26.423 4.53,-31.811 0.429,-4.835 0.248,-13.584 -0.935,-17.712 -4.453,4.959 -13.398,5.12 -20.76,0.132 -7.869,-5.33 -10.952,-14.521 -6.882,-20.527 4.069,-6.009 13.407,-6.017 21.616,-1.227 z"
           id="path14"
           style="display:inline"
           inkscape:label="left antenna"
           inkscape:export-filename="..\images\iBiB_bee_logo-large.png"
           inkscape:export-xdpi="275.62"
           inkscape:export-ydpi="275.62" /><g
           clip-path="none"
           id="g42"
           style="display:none"
           inkscape:label="original bee">
		<path
   fill="#231f20"
   d="m 228.461,997.56 c -14.884,25.766 -46.904,35.125 -71.52,20.906 -24.617,-14.219 -32.507,-46.634 -17.624,-72.399 14.882,-25.767 46.902,-35.128 71.521,-20.908 24.618,14.219 32.505,46.634 17.623,72.401 z"
   id="path31" />
		<g
   id="g34"
   style="display:inline">
			<path
   fill="#f0cb20"
   d="m 102.623,1157.862 c -9.683,0 -18.425,-1.938 -25.28,-5.604 -13.915,-7.44 -22.409,-17.122 -25.969,-29.597 -6.204,-21.742 2.558,-52.038 27.573,-95.345 16.352,-28.309 33.74,-42.069 53.16,-42.069 10.382,0 21.573,3.672 35.22,11.554 12.686,7.329 29.523,19.902 37.689,38.185 8.405,18.817 5.917,40.044 -7.394,63.089 -23.857,41.3 -64.903,59.787 -94.998,59.787 -10e-4,0 0,0 -10e-4,0 z"
   id="path32" />
			<g
   id="g33">
				<path
   fill="#231f20"
   d="m 132.107,990.247 c 9.468,0 19.864,3.458 32.719,10.884 12.046,6.958 28.005,18.834 35.625,35.894 7.714,17.271 5.306,36.971 -7.158,58.549 -10.317,17.859 -25.062,32.753 -42.643,43.069 -15.625,9.169 -32.682,14.219 -48.027,14.219 -8.863,0 -16.789,-1.733 -22.922,-5.013 -12.657,-6.769 -20.35,-15.456 -23.519,-26.56 -7.629,-26.738 11.809,-65.01 27.095,-91.472 8.364,-14.479 17.084,-25.103 25.919,-31.573 7.346,-5.38 14.841,-7.997 22.911,-7.997 m 0,-10 c -19.232,0 -38.459,11.622 -57.49,44.568 -31.489,54.513 -48.225,105.867 0.367,131.852 7.726,4.132 17.226,6.194 27.638,6.194 33.082,0 75.377,-20.822 99.33,-62.286 31.487,-54.512 -0.434,-89.798 -32.124,-108.104 -12.538,-7.241 -25.131,-12.224 -37.721,-12.224 z"
   id="path33" />
			</g>
		</g>
		<path
   fill="#231f20"
   d="m 132.234,1056.81 c -21.673,-12.521 -40.521,-15.132 -63.843,-8.062 l -9.684,23.226 c 19.783,-1.455 32.385,3.723 54.654,16.586 22.269,12.864 36.996,29.38 45.62,47.243 l 22.163,-18.164 c -3.007,-27.096 -26.423,-47.842 -48.91,-60.829 z"
   id="path34" />
		<path
   fill="#231f20"
   d="m 159.694,1009.269 c -21.672,-12.518 -40.521,-15.128 -63.843,-8.059 l -9.684,23.225 c 19.783,-1.454 32.384,3.724 54.654,16.587 22.27,12.863 35.216,24.366 43.841,42.229 l 15.248,-18.09 c -3.008,-27.097 -17.73,-42.902 -40.216,-55.892 z"
   id="path35" />
		<path
   fill="#231f20"
   d="m 99.677,1110.609 c -21.673,-12.52 -33.575,-20.255 -46.359,-18.691 l 1.775,30.611 c 1.936,11.876 0.153,16.61 22.422,29.474 22.269,12.863 10.825,6.636 34.172,5.905 l 24.438,-10.475 c -0.564,-14.38 -13.963,-23.835 -36.448,-36.824 z"
   id="path36" />
		<polygon
   fill="#ffffff"
   points="-0.964,1033.049 16.763,1054.272 54.051,1061.886 87.063,1045.36 113.468,1022.077 129.663,1008.875 147.329,994.265 145.981,987.471 124.156,968.508 97.615,956.527 58.742,951.367 32.427,960.978 -5.038,973.528 -8.452,1014.062 "
   id="polygon36" />
		<g
   id="g38">
			<path
   fill="#ffffff"
   d="m 38.082,1068.32 c -0.221,0 -0.442,0 -0.657,-0.014 -16.671,-0.722 -32.87,-8.916 -44.443,-22.481 -1.035,-1.212 -2.015,-2.449 -2.939,-3.707 15.379,12.604 39.002,18.402 56.232,18.402 2.348,0 4.554,-0.114 6.556,-0.339 6.301,-0.708 14.381,-3.953 22.44,-8.029 -14.822,9.622 -28.399,16.168 -37.185,16.168 -0.002,0 -0.002,0 -0.004,0 z"
   id="path37" />
			<path
   fill="#231f20"
   d="m 58.673,945.689 c -2.883,0 -5.618,0.167 -8.17,0.511 -28.158,3.797 -72.36,29.784 -75.921,60.625 -3.559,30.842 26.256,64.902 62.628,66.477 0.285,0.013 0.579,0.019 0.872,0.019 28.339,0 94.712,-56.753 114.281,-81.848 C 140.18,966.041 90.552,945.689 58.673,945.689 Z M 46.275,1055.52 c -24.95,0 -70.736,-13.755 -67.053,-49.301 3.777,-36.446 58.997,-49.56 85.998,-51.935 0.941,-0.083 1.961,-0.124 3.045,-0.124 21.36,-10e-4 68.696,15.818 78.253,37.523 -15.358,20.864 -72.599,61.098 -94.245,63.528 -1.809,0.205 -3.826,0.309 -5.998,0.309 z"
   id="path38" />
		</g>
		<polygon
   fill="#ffffff"
   points="215.649,1170.235 202.829,1152.497 181.294,1125.397 173.311,1096.086 180.26,1058.631 183.605,1038.006 187.434,1015.405 193.992,1013.177 214.98,1019.532 244.963,1039.612 268.857,1070.707 273.676,1098.305 275.316,1137.599 248.118,1160.238 "
   id="polygon38" />
		<g
   id="g40"
   style="display:inline">
			<path
   fill="#ffffff"
   d="m 189.301,1154.002 c -3.765,-3.42 -7.173,-7.479 -10.123,-12.118 -5.807,-9.13 -6.579,-29.26 -4.6,-51.544 0.519,13.351 2.181,25.031 4.372,34.022 2.317,9.501 5.494,20.339 10.351,29.64 z"
   id="path39" />
			<path
   fill="#231f20"
   d="m 189.211,1010.157 c -0.909,0 -1.803,0.033 -2.684,0.101 -12.084,29.797 -26.516,110.807 -11.568,134.31 11.747,18.474 29.04,27.202 46.38,27.202 11.497,0 23.012,-3.833 32.954,-11.206 24.936,-18.494 33.124,-58.402 22.343,-84.687 -11.442,-27.903 -56.739,-65.72 -87.425,-65.72 z m 30.747,161.073 c -20.129,0 -29.918,-22.491 -36.15,-48.052 -5.918,-24.277 -7.436,-66.622 5.457,-107.752 0.863,-0.094 1.746,-0.14 2.643,-0.14 24.833,0 61.778,35.049 70.372,51.877 23.501,46.018 18.018,69.367 -11.49,91.093 -12.372,9.11 -22.491,12.974 -30.832,12.974 z"
   id="path40" />
		</g>
		<path
   fill="#231f20"
   d="m 283.207,905.86 c -5.64,-3.862 -6.836,-3.574 -10.454,-4 -1.923,-0.225 -4.024,-0.464 -8.681,1.353 -3.941,1.539 -21.332,11.376 -25.31,13.788 -3.472,2.106 -22.95,15.762 -22.95,15.762 0,0 3.024,7.958 5.386,5.284 2.36,-2.673 21.266,-16.258 25.727,-19.271 4.002,-2.701 11.586,-6.762 15.556,-7.727 -2.676,6.26 0.37,14.104 7.278,18.094 7.383,4.265 16.378,2.51 20.092,-3.919 3.714,-6.431 0.397,-14.543 -6.644,-19.364 z"
   id="path41" />
		<path
   fill="#231f20"
   d="m 188.784,851.317 c 6.165,2.956 6.512,4.137 8.688,7.059 1.156,1.552 2.412,3.255 3.165,8.195 0.638,4.185 0.804,24.161 0.701,28.812 -0.09,4.061 -2.187,27.755 -2.187,27.755 0,0 -8.403,1.356 -7.268,-2.025 1.136,-3.381 3.459,-26.543 3.839,-31.914 0.341,-4.817 0.069,-13.414 -1.078,-17.334 -4.086,5.445 -12.401,6.726 -19.309,2.735 -7.384,-4.265 -10.359,-12.935 -6.646,-19.364 3.716,-6.43 12.402,-7.608 20.095,-3.919 z"
   id="path42" />
	</g><path
           id="path7"
           style="display:none;fill:none;stroke:#ff0000;stroke-width:1;stroke-dasharray:none"
           inkscape:label="cut line"
           d="m 103.60675,833.17938 c -1.37775,0.0361 -2.54407,0.9153 -3.8125,1.35937 -11.949733,5.28325 -23.373424,11.78838 -33.886719,19.55469 -0.619263,1.15304 -1.529217,2.34543 -1.205078,3.73828 3.916783,13.97278 7.85025,27.94107 11.773438,41.91211 -10.780349,10.37447 -20.318149,22.2518 -26.835938,35.7832 -4.173997,8.53779 -7.259867,17.57263 -9.642578,26.76172 -14.139345,3.47316 -28.278444,6.94751 -42.4179688,10.41992 -1.012167,0.83348 -2.299621,1.59675 -2.5292968,3.00781 -1.7022402,13.97073 -1.5988636,28.13702 0.00977,42.11132 0.6905053,1.1068 1.2688677,2.4818 2.6289062,2.9004 13.8883414,3.5483 27.7802324,7.0851 41.6699214,10.6289 6.038621,23.8304 18.711745,45.9225 36.177735,63.2168 -4.027722,13.869 -8.052394,27.739 -12.082032,41.6074 0.223622,1.2852 0.227524,2.7794 1.332032,3.6797 9.64398,7.3126 19.998133,13.7178 31.005859,18.7695 1.812299,0.8258 3.625684,1.7208 5.470699,2.4317 1.08836,-0.063 2.30598,0.1556 3.31836,-0.5234 1.24301,-0.9635 2.22547,-2.2345 3.36719,-3.3165 9.07116,-9.2942 18.14174,-18.5885 27.21289,-27.8828 23.65025,6.7046 49.12112,6.8436 72.83984,0.3809 9.95251,10.3802 19.90469,20.7607 29.85742,31.1406 1.25708,0.4702 2.6218,1.2332 3.97461,0.6367 12.9089,-5.4821 25.24215,-12.3635 36.53125,-20.6972 0.61523,-1.146 1.52421,-2.3278 1.21094,-3.7129 -3.91026,-13.9843 -7.85572,-27.9602 -11.7793,-41.9414 10.70889,-10.3076 20.21267,-22.0797 26.7168,-35.5098 4.23207,-8.6205 7.3558,-17.7504 9.75977,-27.0371 14.13999,-3.4725 28.27975,-6.9461 42.41992,-10.418 1.01038,-0.8325 2.30103,-1.5951 2.52734,-3.0058 1.71501,-13.97 1.59987,-28.13707 -0.008,-42.11136 -0.69051,-1.10679 -1.26887,-2.48176 -2.62891,-2.90039 -13.88505,-3.54509 -27.77373,-7.07852 -41.66015,-10.61914 -3.10574,-12.25457 -7.99294,-24.03268 -14.35743,-34.95117 0.0953,-0.16349 0.20427,-0.31627 0.29102,-0.48633 3.296,-6.46199 -1.20534,-14.64449 -9.36133,-19.52148 -4.37824,-2.61784 -6.39327,-3.34491 -8.43555,-3.67774 -1.42289,-1.54772 -2.83205,-3.10842 -4.32617,-4.58789 4.03095,-13.86968 8.05909,-27.74022 12.0918,-41.60937 -0.22361,-1.27106 -0.22173,-2.74287 -1.29883,-3.64649 -9.70269,-7.3732 -20.14082,-13.80715 -31.22656,-18.88867 -1.75531,-0.79109 -3.50423,-1.66706 -5.29102,-2.3457 -1.04735,0.0665 -2.1962,-0.15457 -3.19531,0.44921 -1.18092,0.79748 -2.02859,1.99861 -3.07226,2.96094 -9.21085,9.43739 -18.42198,18.87511 -27.63282,28.3125 -3.20921,-0.90841 -6.45534,-1.67263 -9.72265,-2.33984 -0.52566,-1.10982 -1.08927,-1.93237 -1.63477,-2.70508 -2.298,-3.259 -2.65538,-4.50385 -9.23437,-8.33984 -8.209,-4.79 -17.5482,-4.78244 -21.61719,1.22656 -1.43738,2.1211 -1.96533,4.64281 -1.72266,7.24805 -9.75961,0.48412 -19.46882,1.96371 -28.89843,4.53711 -9.95577,-10.38277 -19.91123,-20.76587 -29.86719,-31.14844 -0.93731,-0.28918 -1.79027,-0.87504 -2.80469,-0.85156 z" /></g><rect
         style="fill:none;fill-opacity:1;stroke:#000000;stroke-width:0.385977;stroke-linejoin:round;stroke-opacity:1"
         id="rect55"
         width="46.121742"
         height="43.166496"
         x="4.3441029"
         y="4.8371944"
         ry="6.0084648" /><text
         xml:space="preserve"
         style="font-style:normal;font-variant:normal;font-weight:normal;font-stretch:normal;font-size:3.88056px;line-height:1;font-family:'Pain de Mie';-inkscape-font-specification:'Pain de Mie';font-variant-ligatures:normal;font-variant-position:normal;font-variant-caps:normal;font-variant-numeric:normal;font-variant-alternates:normal;font-variant-east-asian:normal;font-feature-settings:normal;text-indent:0;text-align:end;text-decoration-line:none;text-decoration-style:solid;text-decoration-color:#000000;letter-spacing:0.264583px;word-spacing:normal;text-transform:none;writing-mode:lr-tb;direction:ltr;text-orientation:mixed;dominant-baseline:auto;baseline-shift:baseline;text-anchor:end;white-space:normal;shape-padding:0;shape-margin:0;display:none;opacity:1;vector-effect:none;fill:#180000;fill-opacity:1;stroke:none;stroke-width:0.377953;stroke-linecap:square;stroke-linejoin:bevel;stroke-miterlimit:4;stroke-dasharray:none;stroke-dashoffset:0;stroke-opacity:1;-inkscape-stroke:none;paint-order:markers fill stroke;stop-color:#000000;stop-opacity:1"
         id="text13"
         transform="matrix(1.0776167,0,0,1.0776167,-3.3515632,-1.5483372)"><textPath
           xlink:href="#path29"
           startOffset="100%"
           id="textPath29"><tspan
             id="tspan13"
             style="font-style:normal;font-variant:normal;font-weight:normal;font-stretch:normal;font-size:3.88056px;font-family:'Pain de Mie';-inkscape-font-specification:'Pain de Mie';fill:#180000;fill-opacity:1;stroke:none">IBiB.US</tspan></textPath></text><path
         style="opacity:0.987039;fill:none;fill-opacity:1;stroke:none;stroke-width:0.1;stroke-linecap:square;stroke-linejoin:bevel;stroke-opacity:1;paint-order:markers fill stroke"
         d="M 38.712337,39.258544 C 43.628188,34.20614 45.813011,28.675805 45.813011,28.675805"
         id="path29"
         sodipodi:nodetypes="cc" /><path
         d="m 40.225283,37.594746 c 0.186387,-0.218453 -0.09119,-0.490992 -0.342115,-0.705084 -0.17122,-0.146087 -0.32768,-0.27958 -0.501852,-0.428186 -0.422145,-0.360179 -0.816775,-0.650971 -1.030867,-0.400045 -0.216612,0.253878 0.265523,0.71115 0.669957,1.056217 0.109226,0.09319 0.215067,0.178397 0.300677,0.251441 0.304063,0.259429 0.66492,0.506103 0.9042,0.225657 z m 0.834394,-0.967149 c 0.381466,-0.489885 0.618928,-0.914845 0.153538,-1.277238 -0.192893,-0.150202 -0.42363,-0.182326 -0.636047,-0.111653 -0.07421,0.02582 -0.106886,0.02989 -0.125257,0.01559 -0.02143,-0.01669 0.01912,-0.112985 -0.0067,-0.187195 -0.03466,-0.100763 -0.105406,-0.180444 -0.188074,-0.244816 -0.459267,-0.357625 -0.903249,-0.05905 -1.189349,0.308363 -0.295636,0.379661 -0.06023,0.582641 0.38679,0.930729 0.318425,0.247953 0.495004,0.355943 0.788936,0.584823 0.312301,0.243185 0.532448,0.345754 0.758944,0.05488 0.01907,-0.02449 0.03815,-0.04899 0.05722,-0.07348 z m -1.206795,-1.343013 c 0.104101,0.08106 0.06899,0.176679 0.01416,0.2471 -0.02146,0.02756 -0.04154,0.02176 -0.07215,-0.0021 -0.0245,-0.01907 -0.135396,-0.110349 -0.159891,-0.129422 -0.04048,-0.03644 -0.05511,-0.04292 -0.02889,-0.0766 0.04768,-0.06123 0.1886,-0.0843 0.246774,-0.039 z m 0.559127,0.715727 c -0.06736,-0.05245 -0.08402,-0.07527 -0.0578,-0.108944 0.08583,-0.110225 0.235254,-0.131582 0.345479,-0.04575 0.08267,0.06437 0.08021,0.20017 0.0039,0.298147 -0.02861,0.03674 -0.05958,0.0323 -0.117753,-0.013 -0.0643,-0.05007 -0.103423,-0.07562 -0.173844,-0.130451 z m -0.248221,-2.245028 c -0.134878,0.189788 0.05065,0.431137 0.338498,0.635702 0.120199,0.08542 0.270697,0.201899 0.432016,0.316545 0.468144,0.332699 1.027938,0.697207 1.27971,0.342936 0.16635,-0.234071 -0.406675,-0.660349 -0.779924,-0.925609 -0.104383,-0.07418 -0.208767,-0.148366 -0.303661,-0.215805 -0.338455,-0.240532 -0.721611,-0.498551 -0.966639,-0.153769 z m 2.785586,0.253912 c 0.337785,-0.520965 0.537704,-0.964825 0.04279,-1.285721 -0.20513,-0.133003 -0.437778,-0.145102 -0.643307,-0.05637 -0.07171,0.03213 -0.103909,0.039 -0.123445,0.02633 -0.02279,-0.01478 0.0093,-0.114214 -0.02283,-0.18592 -0.04322,-0.0974 -0.120578,-0.170678 -0.208491,-0.227679 -0.488405,-0.316674 -0.904976,0.01909 -1.158315,0.409811 -0.261784,0.403748 -0.0097,0.585665 0.465636,0.893894 0.338627,0.21956 0.523864,0.311915 0.836443,0.514586 0.332116,0.215338 0.56029,0.298535 0.76085,-0.01079 0.01689,-0.02605 0.03378,-0.0521 0.05067,-0.07814 z m -1.318149,-1.233904 c 0.110705,0.07178 0.08397,0.170069 0.03542,0.244958 -0.019,0.0293 -0.0395,0.02526 -0.07206,0.0041 -0.02605,-0.01689 -0.14441,-0.09826 -0.170458,-0.115147 -0.04347,-0.03281 -0.05861,-0.038 -0.03539,-0.07382 0.04222,-0.06512 0.180625,-0.100254 0.24249,-0.06014 z m 0.618784,0.664826 c -0.07163,-0.04644 -0.0902,-0.06773 -0.06698,-0.103552 0.076,-0.117217 0.223027,-0.151385 0.340244,-0.07538 0.08791,0.057 0.09718,0.192504 0.02962,0.296698 -0.02533,0.03907 -0.05657,0.03732 -0.118435,-0.0028 -0.06838,-0.04433 -0.10956,-0.06641 -0.184449,-0.114969 z m 1.502955,-1.252713 c -0.08672,-0.05157 -0.23303,-0.02572 -0.288572,0.06767 -0.07538,0.126739 -0.02545,0.300911 0.101285,0.376289 0.120069,0.07141 0.220233,-0.0135 0.279742,-0.113555 0.07339,-0.123405 0.02428,-0.260976 -0.09246,-0.330403 z m -0.0077,-1.442312 c -0.07939,0.146768 -0.206518,0.104472 -0.455681,-0.03031 -0.119462,-0.06462 -0.220011,-0.123424 -0.32582,-0.18066 -0.238923,-0.129242 -0.578955,-0.299941 -0.713736,-0.05078 -0.151398,0.279881 0.04204,0.419812 0.277546,0.547208 0.157007,0.08493 0.303215,0.181667 0.456809,0.264752 0.675811,0.36557 1.239936,0.586899 1.62397,-0.123045 0.361877,-0.668985 -0.515033,-1.152161 -1.163539,-1.502961 -0.01024,-0.0055 -0.02389,-0.01292 -0.03413,-0.01846 -0.259402,-0.14032 -0.551369,-0.293844 -0.708306,-0.0037 -0.12555,0.232097 0.305799,0.478665 0.677837,0.679914 0.0785,0.04246 0.09742,0.04828 0.175919,0.09075 0.184312,0.0997 0.274063,0.17031 0.189133,0.327316 z m 1.20924,-2.108918 c -0.453587,-0.211781 -0.707537,0.09364 -0.967735,-0.02785 -0.207454,-0.09686 0.0465,-0.402278 -0.234799,-0.533615 -0.179325,-0.08373 -0.311568,0.0344 -0.373953,0.168017 -0.177305,0.379747 -0.238588,0.877906 0.218516,1.091328 0.270746,0.126412 0.49283,-0.26669 0.717865,-0.16162 0.34107,0.159245 0.128579,0.651045 0.515359,0.831633 0.182841,0.08537 0.398297,0.02751 0.495157,-0.179949 0.203572,-0.436006 0.125372,-0.956463 -0.37041,-1.187944 z"
         id="text2"
         style="-inkscape-font-specification:'Pain de Mie';fill:#f0cb20;stroke-width:0.09279738;stroke-linecap:square;stroke-linejoin:bevel;paint-order:markers fill stroke;stroke:#15777d;stroke-dasharray:none;stroke-opacity:1;fill-opacity:1"
         transform="matrix(1.0776167,0,0,1.0776167,-3.3515631,-1.5483372)"
         aria-label="IBiB.US" /></g></g></svg>
