<?xml version="1.0" encoding="UTF-8" standalone="no"?>
<!-- Generator: Adobe Illustrator 28.1.0, SVG Export Plug-In . SVG Version: 6.00 Build 0)  -->

<svg
   version="1.1"
   id="Layer_13"
   x="0px"
   y="0px"
   viewBox="-7.862 817.445 360 360"
   enable-background="new -7.862 817.445 360 360"
   xml:space="preserve"
   sodipodi:docname="iBiB_bee_logo_cmyk.svg"
   inkscape:version="1.3 (0e150ed6c4, 2023-07-21)"
   xmlns:inkscape="http://www.inkscape.org/namespaces/inkscape"
   xmlns:sodipodi="http://sodipodi.sourceforge.net/DTD/sodipodi-0.dtd"
   xmlns="http://www.w3.org/2000/svg"
   xmlns:svg="http://www.w3.org/2000/svg"><defs
   id="defs14"><clipPath
     clipPathUnits="userSpaceOnUse"
     id="clipPath15"><path
       id="path16"
       fill="none"
       stroke="#15777d"
       stroke-width="8"
       stroke-linecap="round"
       stroke-linejoin="round"
       stroke-miterlimit="10"
       d="m 345.286,1018.411 -44.295,10.879 c -2.989,12.09 -7.088,24.025 -13.676,35.336 -6.592,11.299 -14.969,20.748 -24.017,29.297 l 12.34,43.912 c -10.971,8.08 -22.828,14.646 -35.217,19.918 l -31.186,-32.527 c -24.236,7.029 -50.292,7.111 -75.269,-0.389 l -31.605,32.383 c -6.129,-2.686 -12.188,-5.646 -18.106,-9.096 -5.919,-3.451 -11.479,-7.27 -16.828,-11.279 l 12.618,-43.455 c -18.817,-18.045 -31.576,-40.764 -37.384,-65.316 l -43.673,-11.139 c -1.521,-13.369 -1.63,-26.928 0,-40.454 L 43.28,965.6 c 2.989,-12.088 7.099,-24.025 13.688,-35.323 6.589,-11.298 14.958,-20.76 24.006,-29.309 L 68.636,857.056 c 10.968,-8.078 22.827,-14.646 35.214,-19.918 l 31.196,32.537 c 24.227,-7.038 50.282,-7.109 75.259,0.379 l 31.605,-32.383 c 6.129,2.687 12.188,5.646 18.108,9.098 5.918,3.449 11.478,7.268 16.836,11.278 l -12.627,43.454 c 18.816,18.058 31.586,40.764 37.395,65.33 l 43.664,11.126 c 1.52,13.381 1.639,26.926 0,40.454"
       style="display:inline" /></clipPath></defs><sodipodi:namedview
   id="namedview14"
   pagecolor="#ffffff"
   bordercolor="#000000"
   borderopacity="0.25"
   inkscape:showpageshadow="2"
   inkscape:pageopacity="0.0"
   inkscape:pagecheckerboard="0"
   inkscape:deskcolor="#d1d1d1"
   inkscape:zoom="1.4166667"
   inkscape:cx="178.58824"
   inkscape:cy="179.64706"
   inkscape:window-width="1280"
   inkscape:window-height="953"
   inkscape:window-x="1272"
   inkscape:window-y="-8"
   inkscape:window-maximized="1"
   inkscape:current-layer="Layer_13" />&#10;<path
   id="path3074-2_4_"
   opacity="0.5"
   fill="#15777d"
   d="m 345.286,1018.411 -44.295,10.879 c -2.989,12.09 -7.088,24.025 -13.676,35.336 -6.592,11.299 -14.969,20.748 -24.017,29.297 l 12.34,43.912 c -10.971,8.08 -22.828,14.646 -35.217,19.918 l -31.186,-32.527 c -24.236,7.029 -50.292,7.111 -75.269,-0.389 l -31.605,32.383 c -6.129,-2.686 -12.188,-5.646 -18.106,-9.096 -5.919,-3.451 -11.479,-7.27 -16.828,-11.279 l 12.618,-43.455 c -18.817,-18.045 -31.576,-40.764 -37.384,-65.316 l -43.673,-11.139 c -1.521,-13.369 -1.63,-26.928 0,-40.454 L 43.28,965.6 c 2.989,-12.088 7.099,-24.025 13.688,-35.323 6.589,-11.298 14.958,-20.76 24.006,-29.309 L 68.636,857.056 c 10.968,-8.078 22.827,-14.646 35.214,-19.918 l 31.196,32.537 c 24.227,-7.038 50.282,-7.109 75.259,0.379 l 31.605,-32.383 c 6.129,2.687 12.188,5.646 18.108,9.098 5.918,3.449 11.478,7.268 16.836,11.278 l -12.627,43.454 c 18.816,18.058 31.586,40.764 37.395,65.33 l 43.664,11.126 c 1.52,13.381 1.639,26.926 0,40.454"
   style="display:inline"
   inkscape:label="gear fill" />&#10;<g
   id="g13"
   style="display:inline"
   clip-path="url(#clipPath15)"
   inkscape:label="clipped bee">&#10;	<defs
   id="defs1">&#10;		<path
   id="path3074-2_3_"
   d="m 345.286,1018.411 -44.295,10.879 c -2.989,12.09 -7.088,24.025 -13.676,35.336 -6.592,11.299 -14.969,20.748 -24.017,29.297 l 12.34,43.912 c -10.971,8.08 -22.828,14.646 -35.217,19.918 l -31.186,-32.527 c -24.236,7.029 -50.292,7.111 -75.269,-0.389 l -31.605,32.383 c -6.129,-2.686 -12.188,-5.646 -18.106,-9.096 -5.919,-3.451 -11.479,-7.27 -16.828,-11.279 l 12.618,-43.455 c -18.817,-18.045 -31.576,-40.764 -37.384,-65.316 l -43.673,-11.139 c -1.521,-13.369 -1.63,-26.928 0,-40.454 L 43.28,965.6 c 2.989,-12.088 7.099,-24.025 13.688,-35.323 6.589,-11.298 14.958,-20.76 24.006,-29.309 L 68.636,857.056 c 10.968,-8.078 22.827,-14.646 35.214,-19.918 l 31.196,32.537 c 24.227,-7.038 50.282,-7.109 75.259,0.379 l 31.605,-32.383 c 6.129,2.687 12.188,5.646 18.108,9.098 5.918,3.449 11.478,7.268 16.836,11.278 l -12.627,43.454 c 18.816,18.058 31.586,40.764 37.395,65.33 l 43.664,11.126 c 1.52,13.381 1.639,26.926 0,40.454" />&#10;	</defs>&#10;	&#10;	<g
   clip-path="none"
   id="g12"
   style="display:inline"
   inkscape:label="bee">&#10;		<path
   fill="#231f20"
   d="m 228.461,997.56 c -14.884,25.766 -46.904,35.125 -71.52,20.906 -24.617,-14.219 -32.507,-46.634 -17.624,-72.399 14.882,-25.767 46.902,-35.128 71.521,-20.908 24.618,14.219 32.505,46.634 17.623,72.401 z"
   id="path1" />&#10;		<g
   id="g4">&#10;			<path
   fill="#f0cb20"
   d="m 102.623,1157.862 c -9.683,0 -18.425,-1.938 -25.28,-5.604 -13.915,-7.44 -22.409,-17.122 -25.969,-29.597 -6.204,-21.742 2.558,-52.038 27.573,-95.345 16.352,-28.309 33.74,-42.069 53.16,-42.069 10.382,0 21.573,3.672 35.22,11.554 12.686,7.329 29.523,19.902 37.689,38.185 8.405,18.817 5.917,40.044 -7.394,63.089 -23.857,41.3 -64.903,59.787 -94.998,59.787 -10e-4,0 0,0 -10e-4,0 z"
   id="path2" />&#10;			<g
   id="g3">&#10;				<path
   fill="#231f20"
   d="m 132.107,990.247 c 9.468,0 19.864,3.458 32.719,10.884 12.046,6.958 28.005,18.834 35.625,35.894 7.714,17.271 5.306,36.971 -7.158,58.549 -10.317,17.859 -25.062,32.753 -42.643,43.069 -15.625,9.169 -32.682,14.219 -48.027,14.219 -8.863,0 -16.789,-1.733 -22.922,-5.013 -12.657,-6.769 -20.35,-15.456 -23.519,-26.56 -7.629,-26.738 11.809,-65.01 27.095,-91.472 8.364,-14.479 17.084,-25.103 25.919,-31.573 7.346,-5.38 14.841,-7.997 22.911,-7.997 m 0,-10 c -19.232,0 -38.459,11.622 -57.49,44.568 -31.489,54.513 -48.225,105.867 0.367,131.852 7.726,4.132 17.226,6.194 27.638,6.194 33.082,0 75.377,-20.822 99.33,-62.286 31.487,-54.512 -0.434,-89.798 -32.124,-108.104 -12.538,-7.241 -25.131,-12.224 -37.721,-12.224 z"
   id="path3" />&#10;			</g>&#10;		</g>&#10;		<path
   fill="#231f20"
   d="m 132.234,1056.81 c -21.673,-12.521 -40.521,-15.132 -63.843,-8.062 l -9.684,23.226 c 19.783,-1.455 32.385,3.723 54.654,16.586 22.269,12.864 36.996,29.38 45.62,47.243 l 22.163,-18.164 c -3.007,-27.096 -26.423,-47.842 -48.91,-60.829 z"
   id="path4" />&#10;		<path
   fill="#231f20"
   d="m 159.694,1009.269 c -21.672,-12.518 -40.521,-15.128 -63.843,-8.059 l -9.684,23.225 c 19.783,-1.454 32.384,3.724 54.654,16.587 22.27,12.863 35.216,24.366 43.841,42.229 l 15.248,-18.09 c -3.008,-27.097 -17.73,-42.902 -40.216,-55.892 z"
   id="path5" />&#10;		<path
   fill="#231f20"
   d="m 99.677,1110.609 c -21.673,-12.52 -33.575,-20.255 -46.359,-18.691 l 1.775,30.611 c 1.936,11.876 0.153,16.61 22.422,29.474 22.269,12.863 10.825,6.636 34.172,5.905 l 24.438,-10.475 c -0.564,-14.38 -13.963,-23.835 -36.448,-36.824 z"
   id="path6" />&#10;		<polygon
   fill="#ffffff"
   points="97.615,956.527 58.742,951.367 32.427,960.978 -5.038,973.528 -8.452,1014.062 -0.964,1033.049 16.763,1054.272 54.051,1061.886 87.063,1045.36 113.468,1022.077 129.663,1008.875 147.329,994.265 145.981,987.471 124.156,968.508 "
   id="polygon6" />&#10;		<g
   id="g8">&#10;			<path
   fill="#ffffff"
   d="m 38.082,1068.32 c -0.221,0 -0.442,0 -0.657,-0.014 -16.671,-0.722 -32.87,-8.916 -44.443,-22.481 -1.035,-1.212 -2.015,-2.449 -2.939,-3.707 15.379,12.604 39.002,18.402 56.232,18.402 2.348,0 4.554,-0.114 6.556,-0.339 6.301,-0.708 14.381,-3.953 22.44,-8.029 -14.822,9.622 -28.399,16.168 -37.185,16.168 -0.002,0 -0.002,0 -0.004,0 z"
   id="path7" />&#10;			<path
   fill="#231f20"
   d="m 58.673,945.689 c -2.883,0 -5.618,0.167 -8.17,0.511 -28.158,3.797 -72.36,29.784 -75.921,60.625 -3.559,30.842 26.256,64.902 62.628,66.477 0.285,0.013 0.579,0.019 0.872,0.019 28.339,0 94.712,-56.753 114.281,-81.848 C 140.18,966.041 90.552,945.689 58.673,945.689 Z M 46.275,1055.52 c -24.95,0 -70.736,-13.755 -67.053,-49.301 3.777,-36.446 58.997,-49.56 85.998,-51.935 0.941,-0.083 1.961,-0.124 3.045,-0.124 21.36,-10e-4 68.696,15.818 78.253,37.523 -15.358,20.864 -72.599,61.098 -94.245,63.528 -1.809,0.205 -3.826,0.309 -5.998,0.309 z"
   id="path8" />&#10;		</g>&#10;		<polygon
   fill="#ffffff"
   points="244.963,1039.612 268.857,1070.707 273.676,1098.305 275.316,1137.599 248.118,1160.238 215.649,1170.235 202.829,1152.497 181.294,1125.397 173.311,1096.086 180.26,1058.631 183.605,1038.006 187.434,1015.405 193.992,1013.177 214.98,1019.532 "
   id="polygon8" />&#10;		<g
   id="g10">&#10;			<path
   fill="#ffffff"
   d="m 189.301,1154.002 c -3.765,-3.42 -7.173,-7.479 -10.123,-12.118 -5.807,-9.13 -6.579,-29.26 -4.6,-51.544 0.519,13.351 2.181,25.031 4.372,34.022 2.317,9.501 5.494,20.339 10.351,29.64 z"
   id="path9" />&#10;			<path
   fill="#231f20"
   d="m 189.211,1010.157 c -0.909,0 -1.803,0.033 -2.684,0.101 -12.084,29.797 -26.516,110.807 -11.568,134.31 11.747,18.474 29.04,27.202 46.38,27.202 11.497,0 23.012,-3.833 32.954,-11.206 24.936,-18.494 33.124,-58.402 22.343,-84.687 -11.442,-27.903 -56.739,-65.72 -87.425,-65.72 z m 30.747,161.073 c -20.129,0 -29.918,-22.491 -36.15,-48.052 -5.918,-24.277 -7.436,-66.622 5.457,-107.752 0.863,-0.094 1.746,-0.14 2.643,-0.14 24.833,0 61.778,35.049 70.372,51.877 23.501,46.018 18.018,69.367 -11.49,91.093 -12.372,9.11 -22.491,12.974 -30.832,12.974 z"
   id="path10" />&#10;		</g>&#10;		<path
   fill="#231f20"
   d="m 283.207,905.86 c -5.64,-3.862 -6.836,-3.574 -10.454,-4 -1.923,-0.225 -4.024,-0.464 -8.681,1.353 -3.941,1.539 -21.332,11.376 -25.31,13.788 -3.472,2.106 -22.95,15.762 -22.95,15.762 0,0 3.024,7.958 5.386,5.284 2.36,-2.673 21.266,-16.258 25.727,-19.271 4.002,-2.701 11.586,-6.762 15.556,-7.727 -2.676,6.26 0.37,14.104 7.278,18.094 7.383,4.265 16.378,2.51 20.092,-3.919 3.714,-6.431 0.397,-14.543 -6.644,-19.364 z"
   id="path11" />&#10;		<path
   fill="#231f20"
   d="m 188.784,851.317 c 6.165,2.956 6.512,4.137 8.688,7.059 1.156,1.552 2.412,3.255 3.165,8.195 0.638,4.185 0.804,24.161 0.701,28.812 -0.09,4.061 -2.187,27.755 -2.187,27.755 0,0 -8.403,1.356 -7.268,-2.025 1.136,-3.381 3.459,-26.543 3.839,-31.914 0.341,-4.817 0.069,-13.414 -1.078,-17.334 -4.086,5.445 -12.401,6.726 -19.309,2.735 -7.384,-4.265 -10.359,-12.935 -6.646,-19.364 3.716,-6.43 12.402,-7.608 20.095,-3.919 z"
   id="path12" />&#10;	</g>&#10;		&#10;	&#10;</g>&#10;&#10;<path
   id="path15"
   fill="none"
   stroke="#15777d"
   stroke-width="8"
   stroke-linecap="round"
   stroke-linejoin="round"
   stroke-miterlimit="10"
   d="m 345.286,1018.411 -44.295,10.879 c -2.989,12.09 -7.088,24.025 -13.676,35.336 -6.592,11.299 -14.969,20.748 -24.017,29.297 l 12.34,43.912 c -10.971,8.08 -22.828,14.646 -35.217,19.918 l -31.186,-32.527 c -24.236,7.029 -50.292,7.111 -75.269,-0.389 l -31.605,32.383 c -6.129,-2.686 -12.188,-5.646 -18.106,-9.096 -5.919,-3.451 -11.479,-7.27 -16.828,-11.279 l 12.618,-43.455 c -18.817,-18.045 -31.576,-40.764 -37.384,-65.316 l -43.673,-11.139 c -1.521,-13.369 -1.63,-26.928 0,-40.454 L 43.28,965.6 c 2.989,-12.088 7.099,-24.025 13.688,-35.323 6.589,-11.298 14.958,-20.76 24.006,-29.309 L 68.636,857.056 c 10.968,-8.078 22.827,-14.646 35.214,-19.918 l 31.196,32.537 c 24.227,-7.038 50.282,-7.109 75.259,0.379 l 31.605,-32.383 c 6.129,2.687 12.188,5.646 18.108,9.098 5.918,3.449 11.478,7.268 16.836,11.278 l -12.627,43.454 c 18.816,18.058 31.586,40.764 37.395,65.33 l 43.664,11.126 c 1.52,13.381 1.639,26.926 0,40.454"
   style="display:inline"
   inkscape:label="gear outline" /><path
   fill="#231f20"
   d="m 281.495,908.586 c -6.536,-3.908 -7.8,-3.623 -11.761,-4.062 -2.105,-0.234 -4.983,-1.234 -9.817,0.58 -4.093,1.538 -21.227,12.143 -25.259,14.56 -3.52,2.11 -23.064,15.8 -23.064,15.8 0,0 4.167,8.023 6.422,5.339 2.253,-2.685 21.182,-16.306 25.672,-19.325 4.027,-2.708 11.775,-6.773 15.962,-7.732 -2.192,6.295 1.983,14.205 9.905,18.246 8.467,4.317 18.004,2.578 21.301,-3.885 3.296,-6.462 -1.205,-14.644 -9.361,-19.521 z"
   id="path13"
   style="display:inline"
   inkscape:label="right antenna" />&#10;<path
   fill="#231f20"
   d="m 188.516,852.168 c 6.579,3.836 6.937,5.08 9.235,8.339 1.222,1.731 2.546,3.628 3.292,8.737 0.631,4.327 0.552,24.591 0.383,29.289 -0.15,4.103 -2.705,27.825 -2.705,27.825 0,0 -9.037,0.225 -7.774,-3.045 1.263,-3.27 4.054,-26.423 4.53,-31.811 0.429,-4.835 0.248,-13.584 -0.935,-17.712 -4.453,4.959 -13.398,5.12 -20.76,0.132 -7.869,-5.33 -10.952,-14.521 -6.882,-20.527 4.069,-6.009 13.407,-6.017 21.616,-1.227 z"
   id="path14"
   style="display:inline"
   inkscape:label="left antenna" />&#10;</svg>
