<?xml version="1.0" encoding="utf-8"?>
<!-- Generator: Adobe Illustrator 27.9.4, SVG Export Plug-In . SVG Version: 9.03 Build 54784)  -->
<svg version="1.1" xmlns="http://www.w3.org/2000/svg" xmlns:xlink="http://www.w3.org/1999/xlink" x="0px" y="0px"
	 viewBox="0 0 612 792" style="enable-background:new 0 0 612 792;" xml:space="preserve">
<style type="text/css">
	.st0{display:none;}
	.st1{display:inline;opacity:0.94;fill:#15777D;}
	.st2{display:inline;opacity:0.94;fill:#83A14F;}
	.st3{display:inline;opacity:0.94;fill:#F0CB20;}
	.st4{display:inline;fill:#15777D;}
	.st5{font-family:'HWTSlabAntique';}
	.st6{font-size:16.7938px;}
	.st7{letter-spacing:1;}
	.st8{opacity:0.94;fill:#83A14F;}
	.st9{opacity:0.94;fill:#15777D;}
	.st10{opacity:0.94;fill:#F0CB20;}
	.st11{fill:#15777D;}
	.st12{font-size:40px;}
	.st13{fill:#83A14F;}
	.st14{fill:#F0CB20;}
	.st15{opacity:0;fill:none;stroke:#FFFFFF;stroke-miterlimit:10;}
</style>
<g id="Layer_1" class="st0">
	<path class="st1" d="M341.25,362.94l-3.32,0.82c-0.22,0.91-0.53,1.8-1.03,2.65c-0.49,0.85-1.12,1.56-1.8,2.2l0.93,3.29
		c-0.82,0.61-1.71,1.1-2.64,1.49l-2.34-2.44c-1.82,0.53-3.77,0.53-5.65-0.03l-2.37,2.43c-0.46-0.2-0.91-0.42-1.36-0.68
		c-0.44-0.26-0.86-0.55-1.26-0.85l0.95-3.26c-1.41-1.35-2.37-3.06-2.8-4.9l-3.28-0.84c-0.11-1-0.12-2.02,0-3.03l3.32-0.82
		c0.22-0.91,0.53-1.8,1.03-2.65c0.49-0.85,1.12-1.56,1.8-2.2l-0.93-3.29c0.82-0.61,1.71-1.1,2.64-1.49l2.34,2.44
		c1.82-0.53,3.77-0.53,5.65,0.03l2.37-2.43c0.46,0.2,0.91,0.42,1.36,0.68s0.86,0.55,1.26,0.85l-0.95,3.26
		c1.41,1.35,2.37,3.06,2.8,4.9l3.28,0.84C341.36,360.91,341.37,361.93,341.25,362.94z M330.16,358.1c-1.8-1.05-4.12-0.44-5.17,1.36
		c-1.05,1.8-0.44,4.12,1.36,5.17s4.12,0.44,5.17-1.36C332.57,361.47,331.97,359.16,330.16,358.1z"/>
	<path class="st1" d="M224.06,411.28h8.41v13.59h-34.44v-13.59h8.41V377.1h-8.41v-13.58h34.44v13.58h-8.41V411.28z"/>
	<path class="st1" d="M334.9,414.62h6.34v10.24h-25.96v-10.24h6.34v-25.76h-6.34v-10.24h25.96v10.24h-6.34V414.62z"/>
	<path class="st2" d="M252.3,411.3l-0.06-34.18l-8.41,0.01l-0.02-13.58l37.16-0.06c13.23-0.02,22.1,6.53,22.11,16.7
		c0.01,8.15-5.33,12.37-11.02,13.95c6.14,1.92,11.84,5.59,11.86,14.18c0.02,13.23-12.42,16.5-20.92,16.51l-39.09,0.07l-0.02-13.59
		L252.3,411.3z M269.86,377.09l0.02,10.08l6.4-0.01c4.91-0.01,7.1-2.47,7.09-5.01c0-2.54-2.2-5.08-7.11-5.07L269.86,377.09z
		 M269.9,401.11l0.02,10.17l7.71-0.01c4.91-0.01,6.83-2.55,6.83-5.09c0-2.54-1.94-5.08-6.84-5.07L269.9,401.11z"/>
	<path class="st3" d="M361.11,411.28V377.1h-8.41v-13.58h37.16c13.23,0,22.08,6.57,22.08,16.74c0,8.15-5.35,12.36-11.04,13.93
		c6.13,1.93,11.83,5.61,11.83,14.2c0,13.23-12.44,16.48-20.94,16.48H352.7v-13.59H361.11z M378.73,377.1v10.08h6.4
		c4.91,0,7.1-2.45,7.1-5s-2.19-5.08-7.1-5.08H378.73z M378.73,401.11v10.17h7.71c4.91,0,6.84-2.54,6.84-5.08
		c0-2.54-1.93-5.08-6.84-5.08H378.73z"/>
	<text transform="matrix(1 0 0 1 196.2983 441.0283)" class="st4 st5 st6 st7">It Begins in Brockport</text>
</g>
<g id="BOB-avatar">
	<g>
		<path class="st8" d="M203.46,469.94l-8.21,2.02c-0.55,2.24-1.31,4.45-2.54,6.55c-1.22,2.09-2.77,3.85-4.45,5.43l2.29,8.14
			c-2.03,1.5-4.23,2.72-6.53,3.69l-5.78-6.03c-4.49,1.3-9.32,1.32-13.95-0.07l-5.86,6c-1.14-0.5-2.26-1.05-3.36-1.69
			c-1.1-0.64-2.13-1.35-3.12-2.09l2.34-8.05c-3.49-3.35-5.85-7.55-6.93-12.11l-8.09-2.06c-0.28-2.48-0.3-4.99,0-7.5l8.21-2.02
			c0.55-2.24,1.31-4.45,2.54-6.55s2.77-3.85,4.45-5.43l-2.29-8.14c2.03-1.5,4.23-2.72,6.53-3.69l5.78,6.03
			c4.49-1.3,9.32-1.32,13.95,0.07l5.86-6c1.14,0.5,2.26,1.05,3.36,1.69c1.1,0.64,2.13,1.35,3.12,2.09l-2.34,8.05
			c3.49,3.35,5.85,7.55,6.93,12.11l8.09,2.06C203.74,464.92,203.76,467.43,203.46,469.94z M176.08,457.99
			c-4.45-2.6-10.17-1.09-12.77,3.36s-1.09,10.17,3.36,12.77c4.45,2.6,10.17,1.09,12.77-3.36
			C182.03,466.3,180.53,460.59,176.08,457.99z"/>
		<path class="st9" d="M149.81,417.46l-0.06-34.18l-8.41,0.01l-0.02-13.58l37.16-0.06c13.23-0.02,22.1,6.53,22.11,16.7
			c0.01,8.15-5.33,12.37-11.02,13.95c6.14,1.92,11.84,5.59,11.86,14.18c0.02,13.23-12.42,16.5-20.92,16.51l-39.09,0.07l-0.02-13.59
			L149.81,417.46z M167.37,383.26l0.02,10.08l6.4-0.01c4.91-0.01,7.1-2.47,7.09-5.01c0-2.54-2.2-5.08-7.11-5.07L167.37,383.26z
			 M167.41,407.27l0.02,10.17l7.71-0.01c4.91-0.01,6.83-2.55,6.83-5.09c0-2.54-1.94-5.08-6.84-5.07L167.41,407.27z"/>
		<path class="st10" d="M149.77,548.84v-34.18h-8.41v-13.58h37.16c13.23,0,22.08,6.57,22.08,16.74c0,8.15-5.35,12.36-11.04,13.93
			c6.13,1.93,11.83,5.61,11.83,14.2c0,13.23-12.44,16.48-20.94,16.48h-39.09v-13.59H149.77z M167.39,514.66v10.08h6.4
			c4.91,0,7.1-2.45,7.1-5c0-2.54-2.19-5.08-7.1-5.08H167.39z M167.39,538.67v10.17h7.71c4.91,0,6.84-2.54,6.84-5.08
			c0-2.54-1.93-5.08-6.84-5.08H167.39z"/>
		<text transform="matrix(1 0 0 1 209.0193 431.0643)" class="st11 st5 st12">rockport</text>
		<text transform="matrix(1 0 0 1 208.4196 495.7596)" class="st13 st5 st12">riginal</text>
		<text transform="matrix(1 0 0 1 207.8198 562.5411)" class="st14 st5 st12">uilds</text>
	</g>
	<rect x="96.63" y="312.69" class="st15" width="318.46" height="318.46"/>
</g>
</svg>
