<?xml version="1.0" encoding="UTF-8" standalone="no"?>
<!-- Generator: Adobe Illustrator 28.1.0, SVG Export Plug-In . SVG Version: 6.00 Build 0)  -->

<svg
   version="1.1"
   id="Layer_13"
   x="0px"
   y="0px"
   viewBox="-7.862 817.445 360 360"
   enable-background="new -7.862 817.445 360 360"
   xml:space="preserve"
   sodipodi:docname="iBiB_bee_logo.svg"
   inkscape:version="1.3.2 (091e20e, 2023-11-25, custom)"
   inkscape:export-filename="..\images\iBiB_bee_logo-large.png"
   inkscape:export-xdpi="213.33333"
   inkscape:export-ydpi="213.33333"
   xmlns:inkscape="http://www.inkscape.org/namespaces/inkscape"
   xmlns:sodipodi="http://sodipodi.sourceforge.net/DTD/sodipodi-0.dtd"
   xmlns="http://www.w3.org/2000/svg"
   xmlns:svg="http://www.w3.org/2000/svg"><defs
   id="defs14">
			
			
		
			
			
		
				
			
			
			
		</defs><sodipodi:namedview
   id="namedview14"
   pagecolor="#ffffff"
   bordercolor="#000000"
   borderopacity="0.25"
   inkscape:showpageshadow="2"
   inkscape:pageopacity="0.0"
   inkscape:pagecheckerboard="0"
   inkscape:deskcolor="#d1d1d1"
   inkscape:zoom="1.2328533"
   inkscape:cx="188.99248"
   inkscape:cy="196.69818"
   inkscape:window-width="1920"
   inkscape:window-height="1009"
   inkscape:window-x="-8"
   inkscape:window-y="-8"
   inkscape:window-maximized="1"
   inkscape:current-layer="Layer_13" />
<path
   id="path3074-2_4_"
   opacity="0.5"
   fill="#15777d"
   d="m 345.286,1018.411 -44.295,10.879 c -2.989,12.09 -7.088,24.025 -13.676,35.336 -6.592,11.299 -14.969,20.748 -24.017,29.297 l 12.34,43.912 c -10.971,8.08 -22.828,14.646 -35.217,19.918 l -31.186,-32.527 c -24.236,7.029 -50.292,7.111 -75.269,-0.389 l -31.605,32.383 c -6.129,-2.686 -12.188,-5.646 -18.106,-9.096 -5.919,-3.451 -11.479,-7.27 -16.828,-11.279 l 12.618,-43.455 c -18.817,-18.045 -31.576,-40.764 -37.384,-65.316 l -43.673,-11.139 c -1.521,-13.369 -1.63,-26.928 0,-40.454 L 43.28,965.6 c 2.989,-12.088 7.099,-24.025 13.688,-35.323 6.589,-11.298 14.958,-20.76 24.006,-29.309 L 68.636,857.056 c 10.968,-8.078 22.827,-14.646 35.214,-19.918 l 31.196,32.537 c 24.227,-7.038 50.282,-7.109 75.259,0.379 l 31.605,-32.383 c 6.129,2.687 12.188,5.646 18.108,9.098 5.918,3.449 11.478,7.268 16.836,11.278 l -12.627,43.454 c 18.816,18.058 31.586,40.764 37.395,65.33 l 43.664,11.126 c 1.52,13.381 1.639,26.926 0,40.454"
   style="display:inline"
   inkscape:label="gear fill" />
<g
   clip-path="none"
   id="g12"
   style="display:inline"
   inkscape:label="clipped bee">
		<path
   fill="#231f20"
   d="m 228.461,997.56 c -14.884,25.766 -46.904,35.125 -71.52,20.906 -24.617,-14.219 -32.507,-46.634 -17.624,-72.399 14.882,-25.767 46.902,-35.128 71.521,-20.908 24.618,14.219 32.505,46.634 17.623,72.401 z"
   id="path1"
   style="display:inline"
   inkscape:label="head" />
		<path
   id="path2"
   style="display:inline;fill:#f0cb20;fill-opacity:1"
   d="M 132.10675 985.24773 C 112.68677 985.24773 95.298577 999.00712 78.946594 1027.3161 C 70.406572 1042.1009 63.8078 1055.336 59.005187 1067.2653 C 64.838246 1076.6938 71.825277 1085.5085 80.04425 1093.3903 L 67.427063 1136.8454 C 72.776057 1140.8544 78.336193 1144.6737 84.255188 1148.1247 C 90.173182 1151.5747 96.231662 1154.5344 102.36066 1157.2204 L 133.96613 1124.8376 C 146.11483 1128.4855 158.51743 1130.3056 170.84308 1130.4391 C 180.88793 1121.8223 190.10853 1111.0834 197.62238 1098.0759 C 210.93336 1075.0309 213.4219 1053.803 205.01691 1034.986 C 196.85091 1016.703 180.01344 1004.1295 167.32745 996.80047 C 153.68047 988.91848 142.48874 985.24773 132.10675 985.24773 z "
   inkscape:label="body color" /><path
   id="path3"
   style="display:inline;fill:#231f20;fill-opacity:1"
   d="m 132.10675,980.24773 c -19.23198,0 -38.459253,11.62044 -57.490234,44.56637 -7.293338,12.6261 -13.732392,25.0631 -18.814454,37.0743 1.994556,3.5927 4.159702,7.0978 6.494141,10.5097 5.774101,-15.1849 13.817349,-30.1817 20.980469,-42.582 8.363992,-14.479 17.084928,-25.1023 25.919918,-31.57227 7.346,-5.38 14.84017,-7.9961 22.91016,-7.9961 9.46799,0 19.86376,3.45682 32.71875,10.88277 12.04599,6.958 28.00501,18.8346 35.625,35.8946 7.71399,17.271 5.30578,36.9708 -7.1582,58.5488 -7.75762,13.4286 -18.02146,25.1763 -30.10938,34.5664 5.05753,0.3478 10.10916,0.3589 15.14063,0.1289 8.88624,-8.3248 16.97992,-18.1836 23.6289,-29.6933 31.48697,-54.512 -0.43503,-89.7995 -32.125,-108.10551 -12.53798,-7.24099 -25.13071,-12.22266 -37.7207,-12.22266 z M 90.970031,1151.7419 c 3.763818,1.9487 7.554556,3.7974 11.390629,5.4785 l 4.41797,-4.5254 c -1.39239,0.08 -2.78884,0.168 -4.15625,0.168 -4.119563,0 -8.023613,-0.391 -11.652349,-1.1211 z"
   inkscape:label="neck" />
		<path
   id="path4"
   style="display:inline;fill:#231f20;fill-opacity:1"
   d="m 93.126281,1044.8903 c -7.872338,-0.084 -15.988633,1.2062 -24.734375,3.8574 l -8.392578,20.127 c 0.623548,0.9764 1.217002,1.9681 1.867188,2.9297 18.015221,-0.6906 30.436538,4.5926 51.494144,16.7558 19.56111,11.2998 33.2995,25.4179 42.19726,40.7911 3.40196,0.4322 6.80499,0.7232 10.20899,0.8906 l 15.37695,-12.6035 c -3.007,-27.096 -26.42318,-47.8412 -48.91016,-60.8282 -13.54561,-7.8256 -25.98686,-11.7805 -39.107419,-11.9199 z"
   inkscape:label="lower band" />
		<path
   fill="#231f20"
   d="m 159.694,1009.269 c -21.672,-12.518 -40.521,-15.128 -63.843,-8.059 l -9.684,23.225 c 19.783,-1.454 32.384,3.724 54.654,16.587 22.27,12.863 35.216,24.366 43.841,42.229 l 15.248,-18.09 c -3.008,-27.097 -17.73,-42.902 -40.216,-55.892 z"
   id="path5"
   style="display:inline"
   inkscape:label="upper band" />
		<path
   id="path6"
   style="display:inline;fill:#231f20;fill-opacity:1"
   d="M 78.526672 1098.6149 L 67.427063 1136.8454 C 72.776057 1140.8544 78.336193 1144.6737 84.255188 1148.1247 C 90.173182 1151.5747 96.231662 1154.5344 102.36066 1157.2204 L 128.2962 1130.6462 C 122.06396 1124.0831 112.3036 1117.9031 99.677063 1110.6091 C 91.396852 1105.8258 84.548531 1101.7496 78.526672 1098.6149 z "
   inkscape:label="butt" />
		<path
   id="polygon6"
   style="display:inline;fill:#ffffff;fill-opacity:1"
   inkscape:label="left wing fill"
   d="M 58.741516 951.36688 L 45.930969 956.04656 C 44.957674 959.2156 44.071654 962.40006 43.280578 965.5993 L -1.0123906 976.48016 C -2.642389 990.00614 -2.5333891 1003.5662 -1.0123906 1016.9352 L 42.661437 1028.0739 C 45.394305 1039.6265 49.720993 1050.7462 55.438781 1061.1911 L 87.063781 1045.3591 L 113.46808 1022.0778 L 129.66339 1008.8747 L 147.32941 994.26531 L 145.98175 987.47039 L 124.15558 968.5075 L 97.614563 956.52703 L 58.741516 951.36688 z " />
		<path
   id="path8"
   d="m 58.673156,945.68914 c -2.882997,0 -5.617924,0.16772 -8.169922,0.51172 -0.391422,0.0528 -0.81542,0.15353 -1.21289,0.21484 -1.393111,3.58768 -2.639428,7.20716 -3.728516,10.85743 7.27922,-1.51667 14.083612,-2.49795 19.658203,-2.98829 0.940999,-0.083 1.960923,-0.125 3.044922,-0.125 21.359979,-10e-4 68.696917,15.81846 78.253907,37.52344 -15.35049,20.85382 -72.542754,61.05582 -94.212891,63.52152 1.984937,4.1105 4.246558,8.0929 6.658203,11.9961 32.128346,-15.3243 77.739868,-55.6482 93.398438,-75.72856 -12.18299,-25.43197 -61.810486,-45.7832 -93.689454,-45.7832 z"
   style="display:inline;fill:#231f20;fill-opacity:1"
   inkscape:label="left wing" />
		<path
   id="polygon8"
   style="display:inline;fill:#ffffff;fill-opacity:1"
   inkscape:label="right wing fill"
   d="M 193.99152 1013.1774 L 187.43488 1015.4059 L 183.6048 1038.0055 L 180.25909 1058.6305 L 173.31183 1096.0856 L 181.29425 1125.3962 L 184.80011 1129.8083 C 193.07025 1129.0228 201.2566 1127.5404 209.23566 1125.2263 L 240.4212 1157.7536 C 251.51136 1153.0343 262.13679 1147.2104 272.12042 1140.2595 L 275.31573 1137.5993 L 275.27081 1136.529 L 263.29816 1093.9235 C 266.10756 1091.269 268.81554 1088.485 271.46222 1085.6286 L 268.85675 1070.7067 L 244.96222 1039.613 L 214.9798 1019.5329 L 193.99152 1013.1774 z " />
		<path
   id="path10"
   style="display:inline;fill:#231f20;fill-opacity:1"
   d="M 189.21027 1010.1579 C 188.30127 1010.1579 187.40767 1010.1895 186.52667 1010.2575 C 176.26013 1035.573 164.31146 1097.8366 170.11261 1130.4118 C 175.274 1130.4961 180.41491 1130.248 185.52667 1129.7341 C 184.92813 1127.5757 184.34851 1125.3947 183.80792 1123.1774 C 177.88993 1098.9004 176.37197 1056.5554 189.26495 1015.4255 C 190.12795 1015.3315 191.01053 1015.2868 191.90753 1015.2868 C 216.74051 1015.2868 253.68659 1050.3358 262.28058 1067.1638 C 265.78533 1074.0265 268.63064 1080.3743 270.86261 1086.2985 C 273.20653 1083.7984 275.45519 1081.1887 277.62823 1078.4938 C 277.31682 1077.6085 276.98777 1076.7342 276.63605 1075.8766 C 265.19406 1047.9737 219.89623 1010.1579 189.21027 1010.1579 z M 273.82745 1131.3923 C 271.99369 1135.9959 269.3481 1140.2986 265.92316 1144.4138 C 267.69346 1143.2968 269.42405 1142.1106 271.15558 1140.9235 C 272.40601 1138.6825 273.53416 1136.3614 274.55597 1133.986 L 273.82745 1131.3923 z "
   inkscape:label="right wing" />
		<path
   id="path11"
   d="m 265.41534,902.7282 c -0.42801,0.14579 -0.86411,0.29724 -1.34375,0.48438 -3.94099,1.539 -21.33255,11.37706 -25.31054,13.78906 -3.472,2.106 -22.94922,15.76172 -22.94922,15.76172 0,0 3.02472,7.9572 5.38672,5.2832 2.35999,-2.67299 21.26556,-16.25848 25.72656,-19.27148 4.002,-2.701 11.58664,-6.76157 15.55664,-7.72656 -2.676,6.25999 0.36935,14.10375 7.27734,18.09375 5.54491,3.20317 11.99805,3.01006 16.44141,-0.008 -5.72101,-9.52499 -12.65924,-18.40721 -20.78516,-26.40625 z"
   style="display:inline;fill:#231f20;fill-opacity:1"
   inkscape:label="right antenna" />
		<path
   id="path12"
   d="m 172.39386,864.41766 c -1.6297,-0.005 -3.25113,0.10513 -4.87695,0.16015 0.99548,3.93911 3.72538,7.65739 7.81836,10.02149 6.90799,3.99099 15.22259,2.71062 19.30859,-2.73438 1.147,3.92 1.41912,12.51699 1.07812,17.33399 -0.38,5.37099 -2.70384,28.53306 -3.83984,31.91406 -1.135,3.381 7.26953,2.02539 7.26953,2.02539 0,0 2.09555,-23.69486 2.18555,-27.75586 0.0964,-4.35103 -0.0413,-22.1091 -0.58203,-27.80859 -9.4053,-2.08235 -18.90946,-3.12752 -28.36133,-3.15625 z"
   style="display:inline;fill:#231f20;fill-opacity:1"
   inkscape:label="left antenna" />
	</g>

<path
   id="path15"
   fill="none"
   stroke="#15777d"
   stroke-width="8"
   stroke-linecap="round"
   stroke-linejoin="round"
   stroke-miterlimit="10"
   d="m 345.286,1018.411 -44.295,10.879 c -2.989,12.09 -7.088,24.025 -13.676,35.336 -6.592,11.299 -14.969,20.748 -24.017,29.297 l 12.34,43.912 c -10.971,8.08 -22.828,14.646 -35.217,19.918 l -31.186,-32.527 c -24.236,7.029 -50.292,7.111 -75.269,-0.389 l -31.605,32.383 c -6.129,-2.686 -12.188,-5.646 -18.106,-9.096 -5.919,-3.451 -11.479,-7.27 -16.828,-11.279 l 12.618,-43.455 c -18.817,-18.045 -31.576,-40.764 -37.384,-65.316 l -43.673,-11.139 c -1.521,-13.369 -1.63,-26.928 0,-40.454 L 43.28,965.6 c 2.989,-12.088 7.099,-24.025 13.688,-35.323 6.589,-11.298 14.958,-20.76 24.006,-29.309 L 68.636,857.056 c 10.968,-8.078 22.827,-14.646 35.214,-19.918 l 31.196,32.537 c 24.227,-7.038 50.282,-7.109 75.259,0.379 l 31.605,-32.383 c 6.129,2.687 12.188,5.646 18.108,9.098 5.918,3.449 11.478,7.268 16.836,11.278 l -12.627,43.454 c 18.816,18.058 31.586,40.764 37.395,65.33 l 43.664,11.126 c 1.52,13.381 1.639,26.926 0,40.454"
   style="display:inline"
   inkscape:label="gear outline" /><path
   fill="#231f20"
   d="m 281.495,908.586 c -6.536,-3.908 -7.8,-3.623 -11.761,-4.062 -2.105,-0.234 -4.983,-1.234 -9.817,0.58 -4.093,1.538 -21.227,12.143 -25.259,14.56 -3.52,2.11 -23.064,15.8 -23.064,15.8 0,0 4.167,8.023 6.422,5.339 2.253,-2.685 21.182,-16.306 25.672,-19.325 4.027,-2.708 11.775,-6.773 15.962,-7.732 -2.192,6.295 1.983,14.205 9.905,18.246 8.467,4.317 18.004,2.578 21.301,-3.885 3.296,-6.462 -1.205,-14.644 -9.361,-19.521 z"
   id="path13"
   style="display:inline"
   inkscape:label="right antenna" />
<path
   fill="#231f20"
   d="m 188.516,852.168 c 6.579,3.836 6.937,5.08 9.235,8.339 1.222,1.731 2.546,3.628 3.292,8.737 0.631,4.327 0.552,24.591 0.383,29.289 -0.15,4.103 -2.705,27.825 -2.705,27.825 0,0 -9.037,0.225 -7.774,-3.045 1.263,-3.27 4.054,-26.423 4.53,-31.811 0.429,-4.835 0.248,-13.584 -0.935,-17.712 -4.453,4.959 -13.398,5.12 -20.76,0.132 -7.869,-5.33 -10.952,-14.521 -6.882,-20.527 4.069,-6.009 13.407,-6.017 21.616,-1.227 z"
   id="path14"
   style="display:inline"
   inkscape:label="left antenna"
   inkscape:export-filename="..\images\iBiB_bee_logo-large.png"
   inkscape:export-xdpi="275.62"
   inkscape:export-ydpi="275.62" />
<g
   clip-path="none"
   id="g42"
   style="display:none"
   inkscape:label="original bee">
		<path
   fill="#231f20"
   d="m 228.461,997.56 c -14.884,25.766 -46.904,35.125 -71.52,20.906 -24.617,-14.219 -32.507,-46.634 -17.624,-72.399 14.882,-25.767 46.902,-35.128 71.521,-20.908 24.618,14.219 32.505,46.634 17.623,72.401 z"
   id="path31" />
		<g
   id="g34"
   style="display:inline">
			<path
   fill="#f0cb20"
   d="m 102.623,1157.862 c -9.683,0 -18.425,-1.938 -25.28,-5.604 -13.915,-7.44 -22.409,-17.122 -25.969,-29.597 -6.204,-21.742 2.558,-52.038 27.573,-95.345 16.352,-28.309 33.74,-42.069 53.16,-42.069 10.382,0 21.573,3.672 35.22,11.554 12.686,7.329 29.523,19.902 37.689,38.185 8.405,18.817 5.917,40.044 -7.394,63.089 -23.857,41.3 -64.903,59.787 -94.998,59.787 -10e-4,0 0,0 -10e-4,0 z"
   id="path32" />
			<g
   id="g33">
				<path
   fill="#231f20"
   d="m 132.107,990.247 c 9.468,0 19.864,3.458 32.719,10.884 12.046,6.958 28.005,18.834 35.625,35.894 7.714,17.271 5.306,36.971 -7.158,58.549 -10.317,17.859 -25.062,32.753 -42.643,43.069 -15.625,9.169 -32.682,14.219 -48.027,14.219 -8.863,0 -16.789,-1.733 -22.922,-5.013 -12.657,-6.769 -20.35,-15.456 -23.519,-26.56 -7.629,-26.738 11.809,-65.01 27.095,-91.472 8.364,-14.479 17.084,-25.103 25.919,-31.573 7.346,-5.38 14.841,-7.997 22.911,-7.997 m 0,-10 c -19.232,0 -38.459,11.622 -57.49,44.568 -31.489,54.513 -48.225,105.867 0.367,131.852 7.726,4.132 17.226,6.194 27.638,6.194 33.082,0 75.377,-20.822 99.33,-62.286 31.487,-54.512 -0.434,-89.798 -32.124,-108.104 -12.538,-7.241 -25.131,-12.224 -37.721,-12.224 z"
   id="path33" />
			</g>
		</g>
		<path
   fill="#231f20"
   d="m 132.234,1056.81 c -21.673,-12.521 -40.521,-15.132 -63.843,-8.062 l -9.684,23.226 c 19.783,-1.455 32.385,3.723 54.654,16.586 22.269,12.864 36.996,29.38 45.62,47.243 l 22.163,-18.164 c -3.007,-27.096 -26.423,-47.842 -48.91,-60.829 z"
   id="path34" />
		<path
   fill="#231f20"
   d="m 159.694,1009.269 c -21.672,-12.518 -40.521,-15.128 -63.843,-8.059 l -9.684,23.225 c 19.783,-1.454 32.384,3.724 54.654,16.587 22.27,12.863 35.216,24.366 43.841,42.229 l 15.248,-18.09 c -3.008,-27.097 -17.73,-42.902 -40.216,-55.892 z"
   id="path35" />
		<path
   fill="#231f20"
   d="m 99.677,1110.609 c -21.673,-12.52 -33.575,-20.255 -46.359,-18.691 l 1.775,30.611 c 1.936,11.876 0.153,16.61 22.422,29.474 22.269,12.863 10.825,6.636 34.172,5.905 l 24.438,-10.475 c -0.564,-14.38 -13.963,-23.835 -36.448,-36.824 z"
   id="path36" />
		<polygon
   fill="#ffffff"
   points="113.468,1022.077 129.663,1008.875 147.329,994.265 145.981,987.471 124.156,968.508 97.615,956.527 58.742,951.367 32.427,960.978 -5.038,973.528 -8.452,1014.062 -0.964,1033.049 16.763,1054.272 54.051,1061.886 87.063,1045.36 "
   id="polygon36" />
		<g
   id="g38">
			<path
   fill="#ffffff"
   d="m 38.082,1068.32 c -0.221,0 -0.442,0 -0.657,-0.014 -16.671,-0.722 -32.87,-8.916 -44.443,-22.481 -1.035,-1.212 -2.015,-2.449 -2.939,-3.707 15.379,12.604 39.002,18.402 56.232,18.402 2.348,0 4.554,-0.114 6.556,-0.339 6.301,-0.708 14.381,-3.953 22.44,-8.029 -14.822,9.622 -28.399,16.168 -37.185,16.168 -0.002,0 -0.002,0 -0.004,0 z"
   id="path37" />
			<path
   fill="#231f20"
   d="m 58.673,945.689 c -2.883,0 -5.618,0.167 -8.17,0.511 -28.158,3.797 -72.36,29.784 -75.921,60.625 -3.559,30.842 26.256,64.902 62.628,66.477 0.285,0.013 0.579,0.019 0.872,0.019 28.339,0 94.712,-56.753 114.281,-81.848 C 140.18,966.041 90.552,945.689 58.673,945.689 Z M 46.275,1055.52 c -24.95,0 -70.736,-13.755 -67.053,-49.301 3.777,-36.446 58.997,-49.56 85.998,-51.935 0.941,-0.083 1.961,-0.124 3.045,-0.124 21.36,-10e-4 68.696,15.818 78.253,37.523 -15.358,20.864 -72.599,61.098 -94.245,63.528 -1.809,0.205 -3.826,0.309 -5.998,0.309 z"
   id="path38" />
		</g>
		<polygon
   fill="#ffffff"
   points="180.26,1058.631 183.605,1038.006 187.434,1015.405 193.992,1013.177 214.98,1019.532 244.963,1039.612 268.857,1070.707 273.676,1098.305 275.316,1137.599 248.118,1160.238 215.649,1170.235 202.829,1152.497 181.294,1125.397 173.311,1096.086 "
   id="polygon38" />
		<g
   id="g40"
   style="display:inline">
			<path
   fill="#ffffff"
   d="m 189.301,1154.002 c -3.765,-3.42 -7.173,-7.479 -10.123,-12.118 -5.807,-9.13 -6.579,-29.26 -4.6,-51.544 0.519,13.351 2.181,25.031 4.372,34.022 2.317,9.501 5.494,20.339 10.351,29.64 z"
   id="path39" />
			<path
   fill="#231f20"
   d="m 189.211,1010.157 c -0.909,0 -1.803,0.033 -2.684,0.101 -12.084,29.797 -26.516,110.807 -11.568,134.31 11.747,18.474 29.04,27.202 46.38,27.202 11.497,0 23.012,-3.833 32.954,-11.206 24.936,-18.494 33.124,-58.402 22.343,-84.687 -11.442,-27.903 -56.739,-65.72 -87.425,-65.72 z m 30.747,161.073 c -20.129,0 -29.918,-22.491 -36.15,-48.052 -5.918,-24.277 -7.436,-66.622 5.457,-107.752 0.863,-0.094 1.746,-0.14 2.643,-0.14 24.833,0 61.778,35.049 70.372,51.877 23.501,46.018 18.018,69.367 -11.49,91.093 -12.372,9.11 -22.491,12.974 -30.832,12.974 z"
   id="path40" />
		</g>
		<path
   fill="#231f20"
   d="m 283.207,905.86 c -5.64,-3.862 -6.836,-3.574 -10.454,-4 -1.923,-0.225 -4.024,-0.464 -8.681,1.353 -3.941,1.539 -21.332,11.376 -25.31,13.788 -3.472,2.106 -22.95,15.762 -22.95,15.762 0,0 3.024,7.958 5.386,5.284 2.36,-2.673 21.266,-16.258 25.727,-19.271 4.002,-2.701 11.586,-6.762 15.556,-7.727 -2.676,6.26 0.37,14.104 7.278,18.094 7.383,4.265 16.378,2.51 20.092,-3.919 3.714,-6.431 0.397,-14.543 -6.644,-19.364 z"
   id="path41" />
		<path
   fill="#231f20"
   d="m 188.784,851.317 c 6.165,2.956 6.512,4.137 8.688,7.059 1.156,1.552 2.412,3.255 3.165,8.195 0.638,4.185 0.804,24.161 0.701,28.812 -0.09,4.061 -2.187,27.755 -2.187,27.755 0,0 -8.403,1.356 -7.268,-2.025 1.136,-3.381 3.459,-26.543 3.839,-31.914 0.341,-4.817 0.069,-13.414 -1.078,-17.334 -4.086,5.445 -12.401,6.726 -19.309,2.735 -7.384,-4.265 -10.359,-12.935 -6.646,-19.364 3.716,-6.43 12.402,-7.608 20.095,-3.919 z"
   id="path42" />
	</g><path
   id="path7"
   style="display:inline;fill:none;stroke:#ff0000;stroke-width:1;stroke-dasharray:none"
   inkscape:label="cut line"
   d="M 103.60675 833.17938 C 102.229 833.21547 101.06268 834.09468 99.79425 834.53875 C 87.844517 839.822 76.420826 846.32713 65.907531 854.09344 C 65.288268 855.24648 64.378314 856.43887 64.702453 857.83172 C 68.619236 871.8045 72.552703 885.77279 76.475891 899.74383 C 65.695542 910.1183 56.157742 921.99563 49.639953 935.52703 C 45.465956 944.06482 42.380086 953.09966 39.997375 962.28875 C 25.85803 965.76191 11.718931 969.23626 -2.4205938 972.70867 C -3.4327608 973.54215 -4.7202148 974.30542 -4.9498906 975.71648 C -6.6521308 989.68721 -6.5487542 1003.8535 -4.940125 1017.8278 C -4.2496197 1018.9346 -3.6712573 1020.3096 -2.3112188 1020.7282 C 11.577123 1024.2765 25.469014 1027.8133 39.358703 1031.3571 C 45.397324 1055.1875 58.070448 1077.2796 75.536438 1094.5739 C 71.508716 1108.4429 67.484044 1122.3129 63.454406 1136.1813 C 63.678028 1137.4665 63.68193 1138.9607 64.786438 1139.861 C 74.430418 1147.1736 84.784571 1153.5788 95.792297 1158.6305 C 97.604596 1159.4563 99.417981 1160.3513 101.263 1161.0622 C 102.35136 1160.9992 103.56898 1161.2178 104.58136 1160.5388 C 105.82437 1159.5753 106.80683 1158.3043 107.94855 1157.2223 C 117.01971 1147.9281 126.09029 1138.6338 135.16144 1129.3395 C 158.81169 1136.0441 184.28256 1136.1831 208.00128 1129.7204 C 217.95379 1140.1006 227.90597 1150.4811 237.8587 1160.861 C 239.11578 1161.3312 240.4805 1162.0942 241.83331 1161.4977 C 254.74221 1156.0156 267.07546 1149.1342 278.36456 1140.8005 C 278.97979 1139.6545 279.88877 1138.4727 279.5755 1137.0876 C 275.66524 1123.1033 271.71978 1109.1274 267.7962 1095.1462 C 278.50509 1084.8386 288.00887 1073.0665 294.513 1059.6364 C 298.74507 1051.0159 301.8688 1041.886 304.27277 1032.5993 C 318.41276 1029.1268 332.55252 1025.6532 346.69269 1022.1813 C 347.70307 1021.3488 348.99372 1020.5862 349.22003 1019.1755 C 350.93504 1005.2055 350.8199 991.03843 349.21222 977.06414 C 348.52171 975.95735 347.94335 974.58238 346.58331 974.16375 C 332.69826 970.61866 318.80958 967.08523 304.92316 963.54461 C 301.81742 951.29004 296.93022 939.51193 290.56573 928.59344 C 290.66099 928.42995 290.77 928.27717 290.85675 928.10711 C 294.15275 921.64512 289.65141 913.46262 281.49542 908.58563 C 277.11718 905.96779 275.10215 905.24072 273.05987 904.90789 C 271.63698 903.36017 270.22782 901.79947 268.7337 900.32 C 272.76465 886.45032 276.79279 872.57978 280.8255 858.71063 C 280.60189 857.43957 280.60377 855.96776 279.52667 855.06414 C 269.82398 847.69094 259.38585 841.25699 248.30011 836.17547 C 246.5448 835.38438 244.79588 834.50841 243.00909 833.82977 C 241.96174 833.89627 240.81289 833.6752 239.81378 834.27898 C 238.63286 835.07646 237.78519 836.27759 236.74152 837.23992 C 227.53067 846.67731 218.31954 856.11503 209.1087 865.55242 C 205.89949 864.64401 202.65336 863.87979 199.38605 863.21258 C 198.86039 862.10276 198.29678 861.28021 197.75128 860.5075 C 195.45328 857.2485 195.0959 856.00365 188.51691 852.16766 C 180.30791 847.37766 170.96871 847.38522 166.89972 853.39422 C 165.46234 855.51532 164.93439 858.03703 165.17706 860.64227 C 155.41745 861.12639 145.70824 862.60598 136.27863 865.17938 C 126.32286 854.79661 116.3674 844.41351 106.41144 834.03094 C 105.47413 833.74176 104.62117 833.1559 103.60675 833.17938 z " /></svg>
