<?xml version="1.0" encoding="UTF-8" standalone="no"?>
<!-- Created with Inkscape (http://www.inkscape.org/) -->

<svg
   version="1.1"
   id="svg2"
   width="816"
   height="1056"
   viewBox="0 0 816 1056"
   sodipodi:docname="ibib logo - 2024.svg"
   inkscape:version="1.2.2 (732a01da63, 2022-12-09)"
   xmlns:inkscape="http://www.inkscape.org/namespaces/inkscape"
   xmlns:sodipodi="http://sodipodi.sourceforge.net/DTD/sodipodi-0.dtd"
   xmlns="http://www.w3.org/2000/svg"
   xmlns:svg="http://www.w3.org/2000/svg">
  <defs
     id="defs6">
    <marker
       style="overflow:visible"
       id="marker4867"
       refX="0"
       refY="0"
       orient="auto-start-reverse"
       inkscape:stockid="TriangleStart"
       markerWidth="5.3244081"
       markerHeight="6.155385"
       viewBox="0 0 5.3244081 6.1553851"
       inkscape:isstock="true"
       inkscape:collect="always"
       preserveAspectRatio="xMidYMid">
      <path
         transform="scale(0.5)"
         style="fill:context-stroke;fill-rule:evenodd;stroke:context-stroke;stroke-width:1pt"
         d="M 5.77,0 -2.88,5 V -5 Z"
         id="path4865" />
    </marker>
    <marker
       style="overflow:visible"
       id="TriangleStart"
       refX="0"
       refY="0"
       orient="auto-start-reverse"
       inkscape:stockid="TriangleStart"
       markerWidth="5.3244081"
       markerHeight="6.155385"
       viewBox="0 0 5.3244081 6.1553851"
       inkscape:isstock="true"
       inkscape:collect="always"
       preserveAspectRatio="xMidYMid">
      <path
         transform="scale(0.5)"
         style="fill:context-stroke;fill-rule:evenodd;stroke:context-stroke;stroke-width:1pt"
         d="M 5.77,0 -2.88,5 V -5 Z"
         id="path135" />
    </marker>
    <clipPath
       clipPathUnits="userSpaceOnUse"
       id="clipPath18">
      <path
         d="M 0,792 H 612 V 0 H 0 Z"
         id="path16" />
    </clipPath>
    <clipPath
       clipPathUnits="userSpaceOnUse"
       id="clipPath50">
      <path
         d="M 0,792 H 612 V 0 H 0 Z"
         id="path48" />
    </clipPath>
    <clipPath
       clipPathUnits="userSpaceOnUse"
       id="clipPath60">
      <path
         d="M 0,792 H 612 V 0 H 0 Z"
         id="path58" />
    </clipPath>
    <clipPath
       clipPathUnits="userSpaceOnUse"
       id="clipPath92">
      <path
         d="M 0,792 H 612 V 0 H 0 Z"
         id="path90" />
    </clipPath>
    <clipPath
       clipPathUnits="userSpaceOnUse"
       id="clipPath156">
      <path
         d="M 179.593,700.471 H 475.792 V 404.272 H 179.593 Z"
         id="path154" />
    </clipPath>
  </defs>
  <sodipodi:namedview
     id="namedview4"
     pagecolor="#ffffff"
     bordercolor="#000000"
     borderopacity="0.25"
     inkscape:showpageshadow="2"
     inkscape:pageopacity="0.0"
     inkscape:pagecheckerboard="0"
     inkscape:deskcolor="#d1d1d1"
     showgrid="false"
     inkscape:zoom="2.8284271"
     inkscape:cx="434.16356"
     inkscape:cy="200.11122"
     inkscape:window-width="1920"
     inkscape:window-height="986"
     inkscape:window-x="-11"
     inkscape:window-y="-11"
     inkscape:window-maximized="1"
     inkscape:current-layer="g10">
    <inkscape:page
       x="0"
       y="0"
       id="page8"
       width="816"
       height="1056" />
  </sodipodi:namedview>
  <g
     id="g10"
     inkscape:groupmode="layer"
     inkscape:label="Page 1"
     transform="matrix(1.3333333,0,0,-1.3333333,0,1056)">
    <g
       id="g110"
       style="display:inline;stroke-width:1.00987"
       transform="matrix(0.99022186,0,0,0.99022186,1.8237196,4.4701127)">
      <g
         id="g112"
         clip-path="none"
         style="display:inline;stroke-width:1.00987">
        <g
           id="g118"
           transform="translate(362.6854,610.5511)"
           style="stroke-width:1.00987">
          <path
             d="m 0,0 c -2.404,1.402 -5.489,0.59 -6.891,-1.814 -1.401,-2.403 -0.589,-5.488 1.814,-6.89 2.404,-1.402 5.489,-0.59 6.891,1.813 C 3.216,-4.487 2.404,-1.402 0,0 m 14.779,-6.449 -4.43,-1.088 C 10.05,-8.746 9.64,-9.94 8.981,-11.071 c -0.659,-1.13 -1.497,-2.075 -2.402,-2.93 l 1.234,-4.392 C 6.716,-19.201 5.53,-19.858 4.291,-20.385 l -3.119,3.253 c -2.424,-0.703 -5.03,-0.711 -7.528,0.039 l -3.161,-3.239 c -0.613,0.269 -1.219,0.565 -1.811,0.91 -0.592,0.345 -1.148,0.727 -1.683,1.128 l 1.262,4.346 c -1.882,1.805 -3.158,4.077 -3.739,6.533 l -4.368,1.114 c -0.152,1.337 -0.163,2.693 0,4.046 l 4.43,1.088 c 0.299,1.209 0.71,2.403 1.369,3.533 0.659,1.13 1.496,2.076 2.401,2.931 l -1.234,4.392 c 1.097,0.808 2.283,1.465 3.522,1.992 l 3.12,-3.254 c 2.423,0.704 5.029,0.711 7.527,-0.038 L 4.44,11.628 C 5.053,11.359 5.659,11.063 6.251,10.718 6.843,10.373 7.399,9.991 7.935,9.59 L 6.672,5.244 C 8.554,3.438 9.831,1.167 10.412,-1.29 l 4.367,-1.113 c 0.152,-1.338 0.164,-2.693 0,-4.046"
             style="fill:#15777d;fill-opacity:1;fill-rule:nonzero;stroke:none;stroke-width:1.00987"
             id="path120" />
        </g>
        <g
           id="g122"
           transform="translate(221.2162,539.6555)"
           style="stroke-width:1.00987">
          <path
             d="M 0,0 H 11.218 V -18.114 H -34.706 V 0 h 11.218 V 45.57 H -34.706 V 63.681 H 11.218 V 45.57 H 0 Z"
             style="fill:#15777d;fill-opacity:1;fill-rule:nonzero;stroke:none;stroke-width:1.00987"
             id="path124" />
        </g>
        <g
           id="g126"
           transform="translate(369.0003,535.1965)"
           style="stroke-width:1.00987">
          <path
             d="M 0,0 H 8.456 V -13.655 H -26.163 V 0 h 8.457 v 34.352 h -8.457 V 48.005 H 8.456 V 34.352 H 0 Z"
             style="fill:#15777d;fill-opacity:1;fill-rule:nonzero;stroke:none;stroke-width:1.00987"
             id="path128" />
        </g>
        <g
           id="g130"
           transform="translate(282.3388,553.217)"
           style="stroke-width:1.00987">
          <path
             d="m 0,0 0.024,-13.554 10.283,0.018 c 6.542,0.011 9.108,3.405 9.102,6.79 -0.006,3.39 -2.584,6.775 -9.126,6.764 z m -0.056,32.015 0.024,-13.435 8.529,0.014 c 6.544,0.012 9.46,3.288 9.454,6.678 -0.006,3.389 -2.934,6.769 -9.478,6.758 z m -23.409,-45.61 -0.079,45.569 -11.218,-0.019 -0.032,18.111 49.547,0.086 C 32.396,50.183 44.214,41.444 44.237,27.89 44.256,17.021 37.137,11.399 29.546,9.284 37.73,6.727 45.333,1.833 45.353,-9.62 45.384,-27.263 28.799,-31.618 17.465,-31.638 l -52.116,-0.091 -0.031,18.114 z"
             style="fill:#83a14f;fill-opacity:1;fill-rule:nonzero;stroke:none;stroke-width:1.00987"
             id="path132" />
        </g>
        <g
           id="g134"
           transform="translate(427.4369,553.2097)"
           style="stroke-width:1.00987">
          <path
             d="m 0,0 v -13.554 h 10.283 c 6.542,0 9.114,3.389 9.114,6.774 0,3.39 -2.572,6.78 -9.114,6.78 z M 0,32.015 V 18.58 h 8.529 c 6.544,0 9.466,3.271 9.466,6.66 0,3.39 -2.922,6.775 -9.466,6.775 z M -23.488,-13.554 V 32.015 H -34.706 V 50.127 H 14.84 c 17.643,0 29.446,-8.76 29.446,-22.315 0,-10.868 -7.129,-16.478 -14.724,-18.579 8.18,-2.572 15.775,-7.479 15.775,-18.932 0,-17.643 -16.593,-21.969 -27.927,-21.969 h -52.116 v 18.114 z"
             style="fill:#f0cb20;fill-opacity:1;fill-rule:nonzero;stroke:none;stroke-width:1.00987"
             id="path136" />
        </g>
      </g>
    </g>
    <text
       xml:space="preserve"
       style="font-style:normal;font-variant:normal;font-weight:normal;font-stretch:normal;font-size:20.3778px;font-family:'HWT Slab Antique';-inkscape-font-specification:'HWT Slab Antique, Normal';font-variant-ligatures:normal;font-variant-caps:normal;font-variant-numeric:normal;font-variant-east-asian:normal;text-align:center;text-anchor:middle;fill:#15777d;stroke:none;stroke-width:0.283465;fill-opacity:1"
       x="327.91937"
       y="-498.34283"
       id="text551"
       transform="scale(1.0008298,-0.99917089)"><tspan
         sodipodi:role="line"
         id="tspan549"
         style="stroke-width:0.283465;fill:#15777d;fill-opacity:1;stroke:none"
         x="327.91937"
         y="-498.34283">CREATE LEARN INNOVATE</tspan></text>
    <path
       style="fill:none;fill-opacity:1;stroke:#000000;stroke-width:0.75;stroke-dasharray:none;stroke-opacity:1;marker-end:url(#TriangleStart)"
       d="m 192.24469,609.03614 c 13.88153,0.42611 72.1696,-0.093 132.58385,3.42386 11.07963,0.64496 21.68261,11.79147 32.59571,12.18999 16.66579,0.6086 25.92374,-15.28762 40.58702,-15.46791 20.65925,-0.25402 45.25715,-0.88914 58.86814,-0.67627"
       id="path3633"
       sodipodi:nodetypes="csssc" />
    <text
       xml:space="preserve"
       style="font-style:normal;font-variant:normal;font-weight:normal;font-stretch:normal;font-size:21.6731px;font-family:'HWT Slab Antique';-inkscape-font-specification:'HWT Slab Antique, Normal';font-variant-ligatures:normal;font-variant-caps:normal;font-variant-numeric:normal;font-variant-east-asian:normal;text-align:center;text-anchor:middle;fill:#000000;fill-opacity:1;stroke:none;stroke-width:0.283465;stroke-opacity:1"
       id="text4655"
       y="-683.69684"
       x="329.32993"
       transform="scale(1,-1)"><tspan
         style="fill:#000000;stroke:none;stroke-width:0.283465"
         id="tspan4653">It Begins in Brockport</tspan></text>
    <path
       style="fill:none;fill-opacity:1;stroke:#000000;stroke-width:0.75;stroke-dasharray:none;stroke-opacity:1;marker-end:url(#marker4867)"
       d="m 194.63115,640.32561 c 0,0 46.42698,-0.26992 136.2961,0.34565 7.96668,0.0546 18.66123,15.2305 27.3086,15.2998 7.93652,0.0636 13.77236,-14.98068 22.27889,-14.90338 24.22332,0.22011 50.75123,0.49829 79.54662,0.84892"
       id="path4863"
       sodipodi:nodetypes="csssc" />
  </g>
</svg>
