<?xml version="1.0" encoding="UTF-8" standalone="no"?>
<!-- Created with Inkscape (http://www.inkscape.org/) -->

<svg
   width="20in"
   height="12in"
   viewBox="0 0 508.00001 304.8"
   version="1.1"
   id="svg5"
   xml:space="preserve"
   inkscape:version="1.3 (0e150ed6c4, 2023-07-21)"
   sodipodi:docname="IBiB sign.svg"
   xmlns:inkscape="http://www.inkscape.org/namespaces/inkscape"
   xmlns:sodipodi="http://sodipodi.sourceforge.net/DTD/sodipodi-0.dtd"
   xmlns="http://www.w3.org/2000/svg"
   xmlns:svg="http://www.w3.org/2000/svg"><sodipodi:namedview
     id="namedview7"
     pagecolor="#ffffff"
     bordercolor="#000000"
     borderopacity="0.25"
     inkscape:showpageshadow="2"
     inkscape:pageopacity="0.0"
     inkscape:pagecheckerboard="0"
     inkscape:deskcolor="#d1d1d1"
     inkscape:document-units="in"
     showgrid="false"
     inkscape:zoom="0.49638341"
     inkscape:cx="942.81958"
     inkscape:cy="526.81052"
     inkscape:window-width="1920"
     inkscape:window-height="1009"
     inkscape:window-x="-8"
     inkscape:window-y="-8"
     inkscape:window-maximized="1"
     inkscape:current-layer="layer1" /><defs
     id="defs2" /><g
     inkscape:label="Logo"
     inkscape:groupmode="layer"
     id="layer1"
     style="display:inline"><g
       id="g2099"
       clip-path="none"
       transform="matrix(1.5083994,0,0,-1.5083994,-243.23187,965.56673)"
       inkscape:label="Outline"
       style="display:none"><g
         id="g2121"
         transform="translate(427.4369,553.2097)"
         inkscape:label="Yellow B"
         style="fill:none;stroke:#ffff00;stroke-width:0.233876;stroke-dasharray:none;stroke-opacity:1"><path
           d="m 0,0 v -13.554 h 10.283 c 6.542,0 9.114,3.389 9.114,6.774 0,3.39 -2.572,6.78 -9.114,6.78 z M 0,32.015 V 18.58 h 8.529 c 6.544,0 9.466,3.271 9.466,6.66 0,3.39 -2.922,6.775 -9.466,6.775 z M -23.488,-13.554 V 32.015 H -34.706 V 50.127 H 14.84 c 17.643,0 29.446,-8.76 29.446,-22.315 0,-10.868 -7.129,-16.478 -14.724,-18.579 8.18,-2.572 15.775,-7.479 15.775,-18.932 0,-17.643 -16.593,-21.969 -27.927,-21.969 h -52.116 v 18.114 z"
           style="fill:none;fill-opacity:1;fill-rule:nonzero;stroke:#ffff00;stroke-width:0.233876;stroke-dasharray:none;stroke-opacity:1"
           id="path2123" /></g><g
         id="g2105"
         transform="translate(362.68541,610.5511)"
         inkscape:label="Gear"
         style="display:inline;fill:none;fill-opacity:1;stroke:#ffff00;stroke-width:0.233876;stroke-dasharray:none;stroke-opacity:1"><path
           d="m 0,0 c -2.404,1.402 -5.489,0.59 -6.891,-1.814 -1.401,-2.403 -0.589,-5.488 1.814,-6.89 2.404,-1.402 5.489,-0.59 6.891,1.813 C 3.216,-4.487 2.404,-1.402 0,0 m 14.779,-6.449 -4.43,-1.088 C 10.05,-8.746 9.64,-9.94 8.981,-11.071 c -0.659,-1.13 -1.497,-2.075 -2.402,-2.93 l 1.234,-4.392 C 6.716,-19.201 5.53,-19.858 4.291,-20.385 l -3.119,3.253 c -2.424,-0.703 -5.03,-0.711 -7.528,0.039 l -3.161,-3.239 c -0.613,0.269 -1.219,0.565 -1.811,0.91 -0.592,0.345 -1.148,0.727 -1.683,1.128 l 1.262,4.346 c -1.882,1.805 -3.158,4.077 -3.739,6.533 l -4.368,1.114 c -0.152,1.337 -0.163,2.693 0,4.046 l 4.43,1.088 c 0.299,1.209 0.71,2.403 1.369,3.533 0.659,1.13 1.496,2.076 2.401,2.931 l -1.234,4.392 c 1.097,0.808 2.283,1.465 3.522,1.992 l 3.12,-3.254 c 2.423,0.704 5.029,0.711 7.527,-0.038 L 4.44,11.628 C 5.053,11.359 5.659,11.063 6.251,10.718 6.843,10.373 7.399,9.991 7.935,9.59 L 6.672,5.244 C 8.554,3.438 9.831,1.167 10.412,-1.29 l 4.367,-1.113 c 0.152,-1.338 0.164,-2.693 0,-4.046"
           style="fill:none;fill-opacity:1;fill-rule:nonzero;stroke:#ffff00;stroke-width:0.233876;stroke-dasharray:none;stroke-opacity:1"
           id="path2107" /></g><g
         id="g2113"
         transform="translate(369.00029,535.1965)"
         inkscape:label="Little I"
         style="display:inline;fill:none;stroke:#ffff00;stroke-width:0.233876;stroke-dasharray:none;stroke-opacity:1"><path
           d="M 0,0 H 8.456 V -13.655 H -26.163 V 0 h 8.457 v 34.352 h -8.457 V 48.005 H 8.456 V 34.352 H 0 Z"
           style="fill:none;fill-opacity:1;fill-rule:nonzero;stroke:#ffff00;stroke-width:0.233876;stroke-dasharray:none;stroke-opacity:1"
           id="path2115" /></g><g
         id="g2117"
         transform="translate(282.3388,553.217)"
         inkscape:label="Green B"
         style="display:inline;fill:none;stroke:#ffff00;stroke-width:0.233876;stroke-dasharray:none;stroke-opacity:1"><path
           d="m 0,0 0.024,-13.554 10.283,0.018 c 6.542,0.011 9.108,3.405 9.102,6.79 -0.006,3.39 -2.584,6.775 -9.126,6.764 z m -0.056,32.015 0.024,-13.435 8.529,0.014 c 6.544,0.012 9.46,3.288 9.454,6.678 -0.006,3.389 -2.934,6.769 -9.478,6.758 z m -23.409,-45.61 -0.079,45.569 -11.218,-0.019 -0.032,18.111 49.547,0.086 C 32.396,50.183 44.214,41.444 44.237,27.89 44.256,17.021 37.137,11.399 29.546,9.284 37.73,6.727 45.333,1.833 45.353,-9.62 45.384,-27.263 28.799,-31.618 17.465,-31.638 l -52.116,-0.091 -0.031,18.114 z"
           style="fill:none;fill-opacity:1;fill-rule:nonzero;stroke:#ffff00;stroke-width:0.233876;stroke-dasharray:none;stroke-opacity:1"
           id="path2119" /></g><g
         id="g2109"
         transform="translate(221.2162,539.6555)"
         inkscape:label="Big I"
         style="display:inline;fill:none;stroke:#ffff00;stroke-width:0.233876;stroke-dasharray:none;stroke-opacity:1"><path
           d="M 0,0 H 11.218 V -18.114 H -34.706 V 0 h 11.218 V 45.57 H -34.706 V 63.681 H 11.218 V 45.57 H 0 Z"
           style="fill:none;fill-opacity:1;fill-rule:nonzero;stroke:#ffff00;stroke-width:0.233876;stroke-dasharray:none;stroke-opacity:1"
           id="path2111" /></g></g><g
       id="g3090"
       clip-path="none"
       transform="matrix(1.5083994,0,0,-1.5083994,-243.23187,965.56673)"
       inkscape:label="Colored"
       style="display:inline"><g
         id="g3072"
         transform="translate(427.4369,553.2097)"
         inkscape:label="Yellow B"><path
           d="m 0,0 v -13.554 h 10.283 c 6.542,0 9.114,3.389 9.114,6.774 0,3.39 -2.572,6.78 -9.114,6.78 z M 0,32.015 V 18.58 h 8.529 c 6.544,0 9.466,3.271 9.466,6.66 0,3.39 -2.922,6.775 -9.466,6.775 z M -23.488,-13.554 V 32.015 H -34.706 V 50.127 H 14.84 c 17.643,0 29.446,-8.76 29.446,-22.315 0,-10.868 -7.129,-16.478 -14.724,-18.579 8.18,-2.572 15.775,-7.479 15.775,-18.932 0,-17.643 -16.593,-21.969 -27.927,-21.969 h -52.116 v 18.114 z"
           style="fill:#f0cb20;fill-opacity:1;fill-rule:nonzero;stroke:none"
           id="path3070" /></g><g
         id="g3076"
         transform="translate(362.68541,610.5511)"
         inkscape:label="Gear"
         style="display:inline"><path
           d="m 0,0 c -2.404,1.402 -5.489,0.59 -6.891,-1.814 -1.401,-2.403 -0.589,-5.488 1.814,-6.89 2.404,-1.402 5.489,-0.59 6.891,1.813 C 3.216,-4.487 2.404,-1.402 0,0 m 14.779,-6.449 -4.43,-1.088 C 10.05,-8.746 9.64,-9.94 8.981,-11.071 c -0.659,-1.13 -1.497,-2.075 -2.402,-2.93 l 1.234,-4.392 C 6.716,-19.201 5.53,-19.858 4.291,-20.385 l -3.119,3.253 c -2.424,-0.703 -5.03,-0.711 -7.528,0.039 l -3.161,-3.239 c -0.613,0.269 -1.219,0.565 -1.811,0.91 -0.592,0.345 -1.148,0.727 -1.683,1.128 l 1.262,4.346 c -1.882,1.805 -3.158,4.077 -3.739,6.533 l -4.368,1.114 c -0.152,1.337 -0.163,2.693 0,4.046 l 4.43,1.088 c 0.299,1.209 0.71,2.403 1.369,3.533 0.659,1.13 1.496,2.076 2.401,2.931 l -1.234,4.392 c 1.097,0.808 2.283,1.465 3.522,1.992 l 3.12,-3.254 c 2.423,0.704 5.029,0.711 7.527,-0.038 L 4.44,11.628 C 5.053,11.359 5.659,11.063 6.251,10.718 6.843,10.373 7.399,9.991 7.935,9.59 L 6.672,5.244 C 8.554,3.438 9.831,1.167 10.412,-1.29 l 4.367,-1.113 c 0.152,-1.338 0.164,-2.693 0,-4.046"
           style="fill:#15777d;fill-opacity:1;fill-rule:nonzero;stroke:none"
           id="path3074" /></g><g
         id="g3080"
         transform="translate(369.00029,535.1965)"
         inkscape:label="Little I"
         style="display:inline"><path
           d="M 0,0 H 8.456 V -13.655 H -26.163 V 0 h 8.457 v 34.352 h -8.457 V 48.005 H 8.456 V 34.352 H 0 Z"
           style="fill:#15777d;fill-opacity:1;fill-rule:nonzero;stroke:none"
           id="path3078" /></g><g
         id="g3084"
         transform="translate(282.3388,553.217)"
         inkscape:label="Green B"
         style="display:inline"><path
           d="m 0,0 0.024,-13.554 10.283,0.018 c 6.542,0.011 9.108,3.405 9.102,6.79 -0.006,3.39 -2.584,6.775 -9.126,6.764 z m -0.056,32.015 0.024,-13.435 8.529,0.014 c 6.544,0.012 9.46,3.288 9.454,6.678 -0.006,3.389 -2.934,6.769 -9.478,6.758 z m -23.409,-45.61 -0.079,45.569 -11.218,-0.019 -0.032,18.111 49.547,0.086 C 32.396,50.183 44.214,41.444 44.237,27.89 44.256,17.021 37.137,11.399 29.546,9.284 37.73,6.727 45.333,1.833 45.353,-9.62 45.384,-27.263 28.799,-31.618 17.465,-31.638 l -52.116,-0.091 -0.031,18.114 z"
           style="fill:#83a14f;fill-opacity:1;fill-rule:nonzero;stroke:none"
           id="path3082" /></g><g
         id="g3088"
         transform="translate(221.2162,539.6555)"
         inkscape:label="Big I"
         style="display:inline"><path
           d="M 0,0 H 11.218 V -18.114 H -34.706 V 0 h 11.218 V 45.57 H -34.706 V 63.681 H 11.218 V 45.57 H 0 Z"
           style="fill:#15777d;fill-opacity:1;fill-rule:nonzero;stroke:none"
           id="path3086" /></g></g></g><g
     inkscape:groupmode="layer"
     id="layer2"
     inkscape:label="Text"><g
       id="g2702"
       transform="matrix(0.6130475,0,0,0.6130475,-194.20822,-197.30426)">&#10;	<path
   d="m 398.62,658.25 h 6.36 v 10.27 h -26.04 v -10.27 h 6.36 v -25.84 h -6.36 v -10.27 h 26.04 v 10.27 h -6.36 z"
   id="path2664" />&#10;	<path
   d="m 411.53,658.78 c 0,-2.12 0,-17.29 0,-17.29 h -4.57 v -7.95 h 1.52 c 5.3,0 7.42,-3.45 7.42,-9.14 v -2.25 h 6.16 v 11.4 h 4.7 v 7.95 h -4.7 v 16.76 c 0,1.66 0.86,1.92 1.39,1.92 0.73,0 1.39,-0.79 1.39,-2.05 v -2.45 h 2.25 l 1.52,0.66 c 0.07,1.06 0.07,1.46 0.07,2.58 0,6.36 -2.32,9.74 -9.41,9.74 -7.27,-0.01 -7.74,-6.57 -7.74,-9.88 z"
   id="path2666" />&#10;	<path
   d="m 456.91,658.25 v -25.84 h -6.36 v -10.27 h 28.09 c 10,0 16.7,4.97 16.7,12.65 0,6.16 -4.04,9.34 -8.35,10.54 4.64,1.46 8.94,4.24 8.94,10.73 0,10 -9.41,12.46 -15.83,12.46 h -29.55 v -10.27 z m 13.32,-25.84 v 7.62 h 4.84 c 3.71,0 5.37,-1.86 5.37,-3.78 0,-1.92 -1.66,-3.84 -5.37,-3.84 z m 0,18.15 v 7.68 h 5.83 c 3.71,0 5.17,-1.92 5.17,-3.84 0,-1.92 -1.46,-3.84 -5.17,-3.84 z"
   id="path2668" />&#10;	<path
   d="m 513.62,633.4 c 9.14,0 14.71,7.55 14.71,16.76 v 1.13 h -19.41 c 0,5.76 0.99,9.21 4.9,9.21 3.98,0 6.49,-3.51 6.76,-6.96 h 7.75 c 0,7.49 -5.7,15.11 -14.05,15.11 -10.47,0 -16.03,-8.35 -16.03,-16.89 0,-9.48 5.24,-18.36 15.37,-18.36 z m 3.98,13.98 c 0,-2.65 -0.66,-5.83 -4.24,-5.83 -3.25,0 -4.24,3.18 -4.24,5.83 z"
   id="path2670" />&#10;	<path
   d="m 538.86,680.04 c -4.57,0 -7.22,-2.65 -7.22,-5.57 0,-1.92 1.26,-3.91 3.78,-5.3 -2.85,-1.26 -4.37,-4.44 -4.37,-7.55 0,-2.92 1.33,-5.76 3.97,-7.16 -2.58,-2.19 -4.04,-4.9 -4.04,-8.48 0,-7.35 6.03,-12.59 14.97,-12.59 5.04,0 7.29,0.66 10.87,3.31 1.92,-2.32 3.38,-3.31 6.76,-3.31 3.78,0 5.43,2.58 5.43,5.04 0,2.19 -1.26,4.17 -3.58,4.17 -4.04,0 -3.38,-3.18 -4.31,-3.18 -0.46,0 -1.06,0.46 -1.52,0.73 0.93,2.38 1.33,4.64 1.33,6.56 0,7.62 -6.49,11.59 -14.71,11.59 -5.76,0 -5.17,-0.79 -6.76,-0.79 -0.79,0 -1.13,0.53 -1.13,1.13 0,1.06 1.06,1.92 3.97,1.92 h 16.37 c 6.76,0 10.4,5.04 10.4,10 0,4.77 -3.38,9.47 -10.6,9.47 h -19.61 z m 1.92,-8.68 c -1.13,0 -2.85,0.07 -2.85,1.52 0,1.46 1.72,1.52 2.85,1.52 0,0 16.17,0 17.29,0 1.12,0 2.85,-0.07 2.85,-1.52 0,-1.46 -1.72,-1.52 -2.85,-1.52 0.01,0 -16.16,0 -17.29,0 z m 5.24,-21 c 2.45,0 4.11,-1.99 4.11,-4.57 0,-2.58 -1.86,-4.77 -4.11,-4.77 -2.25,0 -4.04,2.19 -4.04,4.77 0,2.58 1.59,4.57 4.04,4.57 z"
   id="path2672" />&#10;	<path
   d="m 570.73,668.51 v -7.95 h 4.64 v -19.08 h -4.51 v -7.95 h 15.04 v 27.03 h 4.5 v 7.95 z m 9.87,-45.78 c 2.58,0 4.64,2.05 4.64,4.64 0,2.59 -2.05,4.64 -4.64,4.64 -2.59,0 -4.64,-2.05 -4.64,-4.64 0,-2.59 2.06,-4.64 4.64,-4.64 z"
   id="path2674" />&#10;	<path
   d="m 626.38,660.56 h 4.7 v 7.95 h -18.95 v -7.95 h 3.71 c 0,0 0,-11.33 0,-13.38 0,-3.31 -1.06,-5.37 -3.58,-5.37 -2.52,0 -4.64,2.52 -4.64,6.36 0,12.92 0,12.39 0,12.39 h 3.45 v 7.95 h -18.68 v -7.95 h 4.7 v -19.08 h -4.7 v -7.95 h 15.24 v 4.57 c 2.12,-3.18 5.57,-4.7 8.88,-4.7 5.04,0 9.87,3.58 9.87,10.2 z"
   id="path2676" />&#10;	<path
   d="m 633.07,655.93 h 7.95 c 1.39,3.38 4.31,5.04 8.15,5.04 0.86,0 4.31,-0.26 4.31,-1.86 0,-2.58 -7.88,-2.72 -11.4,-3.91 -4.57,-1.52 -8.94,-4.7 -8.94,-10.87 0,-6.23 5.43,-10.93 12.85,-10.93 2.52,0 5.43,0.6 7.49,3.38 v -3.25 h 7.88 v 12.65 c 0,0 -5.1,-0.13 -7.75,-0.2 -0.99,-3.18 -3.91,-4.44 -7.22,-4.44 -1.13,0 -3.64,0.27 -3.64,2.05 0,2.12 6.76,2.19 9.94,3.05 6.69,1.72 10.14,5.9 10.14,11.33 0,6.62 -6.43,10.67 -12.65,10.67 -3.58,0 -6.23,-0.53 -8.94,-2.98 v 2.85 h -8.15 v -12.58 z"
   id="path2678" />&#10;	<path
   d="m 684.68,668.51 v -7.95 h 4.64 v -19.08 h -4.51 v -7.95 h 15.04 v 27.03 h 4.5 v 7.95 z m 9.87,-45.78 c 2.58,0 4.64,2.05 4.64,4.64 0,2.59 -2.05,4.64 -4.64,4.64 -2.59,0 -4.64,-2.05 -4.64,-4.64 0,-2.59 2.05,-4.64 4.64,-4.64 z"
   id="path2680" />&#10;	<path
   d="m 740.33,660.56 h 4.7 v 7.95 h -18.95 v -7.95 h 3.71 c 0,0 0,-11.33 0,-13.38 0,-3.31 -1.06,-5.37 -3.58,-5.37 -2.52,0 -4.64,2.52 -4.64,6.36 0,12.92 0,12.39 0,12.39 h 3.45 v 7.95 h -18.68 v -7.95 h 4.7 v -19.08 h -4.7 v -7.95 h 15.24 v 4.57 c 2.12,-3.18 5.57,-4.7 8.88,-4.7 5.04,0 9.87,3.58 9.87,10.2 z"
   id="path2682" />&#10;	<path
   d="m 773.25,658.25 v -25.84 h -6.36 v -10.27 h 28.09 c 10,0 16.7,4.97 16.7,12.65 0,6.16 -4.04,9.34 -8.35,10.54 4.64,1.46 8.94,4.24 8.94,10.73 0,10 -9.41,12.46 -15.83,12.46 h -29.55 v -10.27 z m 13.32,-25.84 v 7.62 h 4.84 c 3.71,0 5.37,-1.86 5.37,-3.78 0,-1.92 -1.66,-3.84 -5.37,-3.84 z m 0,18.15 v 7.68 h 5.83 c 3.71,0 5.17,-1.92 5.17,-3.84 0,-1.92 -1.46,-3.84 -5.17,-3.84 z"
   id="path2684" />&#10;	<path
   d="m 814.26,668.51 v -7.95 h 4.64 v -19.08 h -4.51 v -7.95 h 15.04 v 4.97 c 1.92,-2.85 4.44,-5.1 7.75,-5.1 4.84,0 8.75,4.11 8.75,9.28 0,3.38 -2.32,6.69 -5.9,6.69 -2.19,0 -4.37,-1.52 -4.97,-3.78 -0.4,-1.46 0.13,-3.18 -1.99,-3.18 -2.58,0 -3.64,3.45 -3.64,8.08 v 10.07 h 4.5 v 7.95 z"
   id="path2686" />&#10;	<path
   d="m 882.1,651.02 c 0,9.01 -7.35,17.69 -17.42,17.69 -10.07,0 -17.42,-8.68 -17.42,-17.69 0,-9.54 7.16,-17.82 17.42,-17.82 10.26,0 17.42,8.28 17.42,17.82 z m -17.42,9.74 c 5.57,0 5.76,-5.7 5.76,-9.74 0,-5.1 -1.06,-9.41 -5.76,-9.41 -4.7,0 -5.76,4.31 -5.76,9.41 -0.01,4.04 0.19,9.74 5.76,9.74 z"
   id="path2688" />&#10;	<path
   d="m 900.19,633.4 c 6.43,0 13.05,5.37 13.05,11.86 0,3.18 -1.72,5.37 -5.57,5.37 -2.52,0 -4.7,-1.99 -4.7,-4.5 0,-0.99 0.4,-1.59 0.4,-2.45 0,-1.59 -1.26,-2.05 -3.05,-2.05 -4.64,0 -4.9,6.1 -4.9,10.14 0,3.38 0.26,8.81 4.57,8.81 3.58,0 5.37,-4.31 5.37,-6.89 h 8.15 c -0.4,8.35 -5.9,14.97 -14.38,14.97 -10.14,0 -14.38,-8.28 -14.38,-17.69 0,-9.69 4.5,-17.57 15.44,-17.57 z"
   id="path2690" />&#10;	<path
   d="m 930.33,660.56 h 2.72 v 7.95 h -18.22 v -7.95 h 4.97 v -30.48 h -4.84 v -7.95 h 15.37 v 28.69 l 10.34,-9.34 h -5.96 v -7.95 h 18.09 v 7.95 h -4.77 l -6.69,6.03 9.01,13.05 h 3.25 v 7.95 h -19.41 v -7.95 h 4.04 l -4.37,-6.29 -3.51,3.18 v 3.11 z"
   id="path2692" />&#10;	<path
   d="m 960.21,641.48 h -4.31 v -7.95 h 14.84 v 4.5 c 1.99,-2.72 4.04,-4.64 7.55,-4.64 8.94,0 11.46,10.14 11.46,17.56 0,6.69 -2.32,17.69 -11.46,17.69 -3.05,0 -6.76,-2.25 -7.55,-3.78 v 7.09 h 4.64 v 7.95 h -19.81 v -7.95 h 4.64 z m 10.73,9.54 c 0,2.92 0.07,9.14 4.04,9.14 3.97,0 4.04,-6.23 4.04,-9.14 -0.07,-3.91 -0.13,-9.14 -4.04,-9.14 -3.91,0 -3.97,5.24 -4.04,9.14 z"
   id="path2694" />&#10;	<path
   d="m 1027.25,651.02 c 0,9.01 -7.35,17.69 -17.42,17.69 -10.07,0 -17.42,-8.68 -17.42,-17.69 0,-9.54 7.16,-17.82 17.42,-17.82 10.26,0 17.42,8.28 17.42,17.82 z m -17.42,9.74 c 5.57,0 5.76,-5.7 5.76,-9.74 0,-5.1 -1.06,-9.41 -5.76,-9.41 -4.7,0 -5.76,4.31 -5.76,9.41 -0.01,4.04 0.19,9.74 5.76,9.74 z"
   id="path2696" />&#10;	<path
   d="m 1027.92,668.51 v -7.95 h 4.64 v -19.08 h -4.51 v -7.95 h 15.04 v 4.97 c 1.92,-2.85 4.44,-5.1 7.75,-5.1 4.84,0 8.75,4.11 8.75,9.28 0,3.38 -2.32,6.69 -5.9,6.69 -2.19,0 -4.37,-1.52 -4.97,-3.78 -0.4,-1.46 0.13,-3.18 -1.99,-3.18 -2.58,0 -3.64,3.45 -3.64,8.08 v 10.07 h 4.5 v 7.95 z"
   id="path2698" />&#10;	<path
   d="m 1066.14,658.78 c 0,-2.12 0,-17.29 0,-17.29 h -4.57 v -7.95 h 1.52 c 5.3,0 7.42,-3.45 7.42,-9.14 v -2.25 h 6.16 v 11.4 h 4.7 v 7.95 h -4.7 v 16.76 c 0,1.66 0.86,1.92 1.39,1.92 0.73,0 1.39,-0.79 1.39,-2.05 v -2.45 h 2.25 l 1.52,0.66 c 0.07,1.06 0.07,1.46 0.07,2.58 0,6.36 -2.32,9.74 -9.41,9.74 -7.28,-0.01 -7.74,-6.57 -7.74,-9.88 z"
   id="path2700" />&#10;</g></g><g
     inkscape:groupmode="layer"
     id="layer3"
     inkscape:label="Condition"><text
       xml:space="preserve"
       style="font-style:normal;font-variant:normal;font-weight:normal;font-stretch:normal;font-size:50.8px;font-family:'MV Boli';-inkscape-font-specification:'MV Boli, Normal';font-variant-ligatures:normal;font-variant-caps:normal;font-variant-numeric:normal;font-variant-east-asian:normal;display:none;fill:#000000;fill-opacity:1;stroke:#000000;stroke-width:0.352777;stroke-dasharray:none;stroke-opacity:1"
       x="168.31697"
       y="262.35434"
       id="text2864"
       inkscape:label="is open"><tspan
         sodipodi:role="line"
         id="tspan2862"
         style="font-style:normal;font-variant:normal;font-weight:normal;font-stretch:normal;font-size:50.8px;font-family:'MV Boli';-inkscape-font-specification:'MV Boli, Normal';font-variant-ligatures:normal;font-variant-caps:normal;font-variant-numeric:normal;font-variant-east-asian:normal;fill:#000000;fill-opacity:1;stroke-width:0.352778"
         x="168.31697"
         y="262.35434">is open</tspan></text></g><g
     inkscape:groupmode="layer"
     id="layer4"
     inkscape:label="Border"
     style="display:none"><rect
       style="display:inline;fill:none;stroke:#00ffff;stroke-width:0.352778;stroke-dasharray:none;stroke-opacity:1"
       id="rect111"
       width="457.20001"
       height="254"
       x="25.399996"
       y="25.400002"
       inkscape:label="Frame" /><rect
       style="display:none;fill:none;fill-opacity:1;stroke:#000000;stroke-width:0.352778;stroke-dasharray:none;stroke-opacity:1"
       id="rect2921"
       width="431.80002"
       height="57.150002"
       x="38.377594"
       y="222.80325"
       inkscape:label="Condition frame" /><circle
       style="fill:none;fill-opacity:1;stroke:#ff0000;stroke-width:0.352778;stroke-dasharray:none;stroke-opacity:1"
       id="path3027"
       cx="51.077988"
       cy="251.37825"
       r="6.3499999"
       inkscape:label="Post hole 2" /><circle
       style="fill:none;fill-opacity:1;stroke:#ff0000;stroke-width:0.352778;stroke-dasharray:none;stroke-opacity:1"
       id="path3027-4"
       cx="457.478"
       cy="251.37825"
       r="6.3499999"
       inkscape:label="Post hole 1" /></g><style
     type="text/css"
     id="style2654">&#10;	.st0{fill:none;}&#10;</style></svg>
