<?xml version="1.0" encoding="UTF-8" standalone="no"?>
<!-- Created with Inkscape (http://www.inkscape.org/) -->

<svg
   version="1.1"
   id="svg2"
   width="816"
   height="1056"
   viewBox="0 0 816 1056"
   sodipodi:docname="ibib logo - 2024 - t2p.svg"
   inkscape:version="1.3.2 (091e20e, 2023-11-25, custom)"
   xmlns:inkscape="http://www.inkscape.org/namespaces/inkscape"
   xmlns:sodipodi="http://sodipodi.sourceforge.net/DTD/sodipodi-0.dtd"
   xmlns="http://www.w3.org/2000/svg"
   xmlns:svg="http://www.w3.org/2000/svg">
  <defs
     id="defs6">
    <clipPath
       clipPathUnits="userSpaceOnUse"
       id="clipPath18">
      <path
         d="M 0,792 H 612 V 0 H 0 Z"
         id="path16" />
    </clipPath>
    <clipPath
       clipPathUnits="userSpaceOnUse"
       id="clipPath50">
      <path
         d="M 0,792 H 612 V 0 H 0 Z"
         id="path48" />
    </clipPath>
    <clipPath
       clipPathUnits="userSpaceOnUse"
       id="clipPath60">
      <path
         d="M 0,792 H 612 V 0 H 0 Z"
         id="path58" />
    </clipPath>
    <clipPath
       clipPathUnits="userSpaceOnUse"
       id="clipPath92">
      <path
         d="M 0,792 H 612 V 0 H 0 Z"
         id="path90" />
    </clipPath>
    <clipPath
       clipPathUnits="userSpaceOnUse"
       id="clipPath156">
      <path
         d="M 179.593,700.471 H 475.792 V 404.272 H 179.593 Z"
         id="path154" />
    </clipPath>
  </defs>
  <sodipodi:namedview
     id="namedview4"
     pagecolor="#ffffff"
     bordercolor="#000000"
     borderopacity="0.25"
     inkscape:showpageshadow="2"
     inkscape:pageopacity="0.0"
     inkscape:pagecheckerboard="0"
     inkscape:deskcolor="#d1d1d1"
     showgrid="false"
     inkscape:zoom="2"
     inkscape:cx="386.75"
     inkscape:cy="334.75"
     inkscape:window-width="1920"
     inkscape:window-height="1009"
     inkscape:window-x="-8"
     inkscape:window-y="-8"
     inkscape:window-maximized="1"
     inkscape:current-layer="g10">
    <inkscape:page
       x="0"
       y="0"
       id="page8"
       width="816"
       height="1056"
       margin="0"
       bleed="0" />
  </sodipodi:namedview>
  <g
     id="g10"
     inkscape:groupmode="layer"
     inkscape:label="Page 1"
     transform="matrix(1.3333333,0,0,-1.3333333,0,1056)"
     style="display:inline">
    <g
       id="g110"
       style="display:inline;stroke-width:1.00987"
       transform="matrix(0.99022186,0,0,0.99022186,1.8237196,4.4701127)">
      <g
         id="g112"
         clip-path="none"
         style="display:inline;stroke-width:1.00987">
        <g
           id="g118"
           transform="translate(362.6854,610.5511)"
           style="display:inline;stroke-width:1.00987">
          <path
             d="m 0,0 c -2.404,1.402 -5.489,0.59 -6.891,-1.814 -1.401,-2.403 -0.589,-5.488 1.814,-6.89 2.404,-1.402 5.489,-0.59 6.891,1.813 C 3.216,-4.487 2.404,-1.402 0,0 m 14.779,-6.449 -4.43,-1.088 C 10.05,-8.746 9.64,-9.94 8.981,-11.071 c -0.659,-1.13 -1.497,-2.075 -2.402,-2.93 l 1.234,-4.392 C 6.716,-19.201 5.53,-19.858 4.291,-20.385 l -3.119,3.253 c -2.424,-0.703 -5.03,-0.711 -7.528,0.039 l -3.161,-3.239 c -0.613,0.269 -1.219,0.565 -1.811,0.91 -0.592,0.345 -1.148,0.727 -1.683,1.128 l 1.262,4.346 c -1.882,1.805 -3.158,4.077 -3.739,6.533 l -4.368,1.114 c -0.152,1.337 -0.163,2.693 0,4.046 l 4.43,1.088 c 0.299,1.209 0.71,2.403 1.369,3.533 0.659,1.13 1.496,2.076 2.401,2.931 l -1.234,4.392 c 1.097,0.808 2.283,1.465 3.522,1.992 l 3.12,-3.254 c 2.423,0.704 5.029,0.711 7.527,-0.038 L 4.44,11.628 C 5.053,11.359 5.659,11.063 6.251,10.718 6.843,10.373 7.399,9.991 7.935,9.59 L 6.672,5.244 C 8.554,3.438 9.831,1.167 10.412,-1.29 l 4.367,-1.113 c 0.152,-1.338 0.164,-2.693 0,-4.046"
             style="fill:#15777d;fill-opacity:1;fill-rule:nonzero;stroke:none;stroke-width:1.00987"
             id="path120" />
        </g>
        <g
           id="g122"
           transform="translate(221.2162,539.6555)"
           style="display:inline;stroke-width:1.00987">
          <path
             d="M 0,0 H 11.218 V -18.114 H -34.706 V 0 h 11.218 V 45.57 H -34.706 V 63.681 H 11.218 V 45.57 H 0 Z"
             style="fill:#15777d;fill-opacity:1;fill-rule:nonzero;stroke:none;stroke-width:1.00987"
             id="path124" />
        </g>
        <g
           id="g126"
           transform="translate(369.0003,535.1965)"
           style="stroke-width:1.00987">
          <path
             d="M 0,0 H 8.456 V -13.655 H -26.163 V 0 h 8.457 v 34.352 h -8.457 V 48.005 H 8.456 V 34.352 H 0 Z"
             style="fill:#15777d;fill-opacity:1;fill-rule:nonzero;stroke:none;stroke-width:1.00987"
             id="path128" />
        </g>
        <g
           id="g130"
           transform="translate(282.3388,553.217)"
           style="stroke-width:1.00987">
          <path
             d="m 0,0 0.024,-13.554 10.283,0.018 c 6.542,0.011 9.108,3.405 9.102,6.79 -0.006,3.39 -2.584,6.775 -9.126,6.764 z m -0.056,32.015 0.024,-13.435 8.529,0.014 c 6.544,0.012 9.46,3.288 9.454,6.678 -0.006,3.389 -2.934,6.769 -9.478,6.758 z m -23.409,-45.61 -0.079,45.569 -11.218,-0.019 -0.032,18.111 49.547,0.086 C 32.396,50.183 44.214,41.444 44.237,27.89 44.256,17.021 37.137,11.399 29.546,9.284 37.73,6.727 45.333,1.833 45.353,-9.62 45.384,-27.263 28.799,-31.618 17.465,-31.638 l -52.116,-0.091 -0.031,18.114 z"
             style="fill:#83a14f;fill-opacity:1;fill-rule:nonzero;stroke:none;stroke-width:1.00987"
             id="path132" />
        </g>
        <g
           id="g134"
           transform="translate(427.4369,553.2097)"
           style="stroke-width:1.00987">
          <path
             d="m 0,0 v -13.554 h 10.283 c 6.542,0 9.114,3.389 9.114,6.774 0,3.39 -2.572,6.78 -9.114,6.78 z M 0,32.015 V 18.58 h 8.529 c 6.544,0 9.466,3.271 9.466,6.66 0,3.39 -2.922,6.775 -9.466,6.775 z M -23.488,-13.554 V 32.015 H -34.706 V 50.127 H 14.84 c 17.643,0 29.446,-8.76 29.446,-22.315 0,-10.868 -7.129,-16.478 -14.724,-18.579 8.18,-2.572 15.775,-7.479 15.775,-18.932 0,-17.643 -16.593,-21.969 -27.927,-21.969 h -52.116 v 18.114 z"
             style="fill:#f0cb20;fill-opacity:1;fill-rule:nonzero;stroke:none;stroke-width:1.00987"
             id="path136" />
        </g>
      </g>
    </g>
    <path
       d="m 199.74301,-506.31055 v -6.29674 h -2.97516 c -0.0204,0.917 -0.0204,0.917 -0.0204,0.917 0,0 -1.60984,-0.99852 -3.40309,-0.99852 -4.29972,0 -6.84694,3.52536 -6.84694,7.31563 0,4.23859 2.91403,7.11186 6.84694,7.11186 3.97367,0 6.39863,-2.28232 6.39863,-6.27637 h -3.03629 c 0,1.69136 -1.30418,3.0363 -2.91403,3.0363 -0.71322,0 -2.64911,-0.20378 -2.64911,-3.97367 0,-3.62725 1.93589,-3.87179 2.64911,-3.87179 1.60985,0 2.91403,1.34494 2.91403,3.0363 z m 11.5542,0.81511 c 1.67098,-0.32605 3.11781,-1.2838 3.11781,-3.28083 0,-3.07705 -2.97516,-3.83102 -4.95181,-3.83102 h -9.10888 v 3.15855 h 1.95627 v 7.94735 h -1.95627 v 3.15856 h 8.00848 v -3.15856 h -1.95627 v -2.38421 h 0.14264 c 0.24454,0 1.67098,0.0204 2.13967,0.59096 0.99852,1.18191 0.32605,3.01591 1.54872,4.2182 0.71322,0.71323 1.56909,0.83549 2.46571,0.83549 2.13967,0 3.26045,-1.2838 3.26045,-3.34195 v -1.34494 h -1.32456 c 0,0.50945 0,1.22267 -0.44831,1.22267 -0.28529,0 -0.30567,-0.50945 -0.30567,-0.67247 0,-0.85587 -0.30566,-1.73211 -1.03927,-2.32307 -0.3668,-0.26491 -0.85586,-0.5502 -1.54871,-0.79473 z m -4.89067,-1.58947 v -2.36383 h 1.79325 c 1.14115,0 1.58946,0.59096 1.58946,1.18192 0,0.59095 -0.44831,1.18191 -1.58946,1.18191 z m 10.16851,-2.36383 h 1.95627 v 7.94735 h -1.95627 v 3.15856 h 13.81615 v -6.21523 h -2.89365 c 0,1.6506 -1.22267,3.05667 -2.66949,3.05667 h -2.2008 v -2.28232 h 2.62873 v -3.38271 h -2.62873 v -2.28232 h 2.2008 c 1.44682,0 2.66949,1.40607 2.66949,3.05667 h 2.89365 v -6.21522 h -13.81615 z m 14.42749,11.10591 h 6.76543 v -3.15856 h -1.89514 l 0.40756,-1.1004 h 3.68838 l 0.42793,1.1004 h -1.89513 v 3.15856 h 7.90658 v -3.15856 h -1.69135 l -4.23859,-11.1059 h -3.72913 l -4.23858,11.1059 h -1.50796 z m 7.13223,-9.0885 0.85587,2.28231 h -1.73212 z m 6.23561,1.08002 h 2.97516 c 0,-0.93738 0.1834,-2.99554 1.44682,-3.03629 h 0.32605 v 7.88621 h -1.95627 v 3.15856 h 8.00847 v -3.15856 h -1.95627 v -7.88621 h 0.32605 c 1.26342,0.0408 1.44682,2.09891 1.44682,3.03629 h 2.97516 v -6.25598 h -13.59199 z m 14.20333,-3.09743 h 1.95627 v 7.94735 h -1.95627 v 3.15856 h 13.81615 v -6.21523 h -2.89365 c 0,1.6506 -1.22266,3.05667 -2.66949,3.05667 h -2.2008 v -2.28232 h 2.62874 v -3.38271 h -2.62874 v -2.28232 h 2.2008 c 1.44683,0 2.66949,1.40607 2.66949,3.05667 h 2.89365 v -6.21522 h -13.81615 z m 20.54081,0 h 1.95627 v 7.94735 h -1.95627 v 3.15856 h 12.87877 v -6.21523 h -2.89365 c 0,1.6506 -1.22266,3.05667 -2.66949,3.05667 h -1.18191 v -7.94735 h 1.85438 v -3.15855 h -7.9881 z m 13.49012,0 h 1.95627 v 7.94735 h -1.95627 v 3.15856 h 13.81615 v -6.21523 h -2.89365 c 0,1.6506 -1.22267,3.05667 -2.66949,3.05667 h -2.2008 v -2.28232 h 2.62873 v -3.38271 h -2.62873 v -2.28232 h 2.2008 c 1.44682,0 2.66949,1.40607 2.66949,3.05667 h 2.89365 v -6.21522 h -13.81615 z m 14.42749,11.10591 h 6.76543 v -3.15856 h -1.89513 l 0.40755,-1.1004 h 3.68838 l 0.42794,1.1004 h -1.89514 v 3.15856 h 7.90659 v -3.15856 h -1.69136 l -4.23858,-11.1059 h -3.72914 l -4.23858,11.1059 h -1.50796 z m 7.13223,-9.0885 0.85587,2.28231 h -1.73211 z m 19.82759,1.93589 c 1.67098,-0.32605 3.1178,-1.2838 3.1178,-3.28083 0,-3.07705 -2.97516,-3.83102 -4.9518,-3.83102 h -9.10888 v 3.15855 h 1.95627 v 7.94735 h -1.95627 v 3.15856 h 8.00847 v -3.15856 h -1.95626 v -2.38421 h 0.14264 c 0.24453,0 1.67098,0.0204 2.13967,0.59096 0.99851,1.18191 0.32604,3.01591 1.54871,4.2182 0.71323,0.71323 1.56909,0.83549 2.46572,0.83549 2.13967,0 3.26044,-1.2838 3.26044,-3.34195 v -1.34494 h -1.32455 c 0,0.50945 0,1.22267 -0.44831,1.22267 -0.28529,0 -0.30567,-0.50945 -0.30567,-0.67247 0,-0.85587 -0.30567,-1.73211 -1.03927,-2.32307 -0.3668,-0.26491 -0.85587,-0.5502 -1.54871,-0.79473 z m -4.89067,-1.58947 v -2.36383 h 1.79324 c 1.14116,0 1.58947,0.59096 1.58947,1.18192 0,0.59095 -0.44831,1.18191 -1.58947,1.18191 z m 24.22919,-2.36383 h 1.79325 v -3.15855 h -6.92846 v 3.15855 h 1.9359 v 4.36085 l -4.76841,-7.5194 h -6.09296 v 3.15855 h 1.99702 v 7.94735 h -1.99702 v 3.15856 h 7.13223 v -3.15856 h -2.03778 v -5.09445 l 5.23709,8.25301 h 3.7699 z m 14.57012,0 h 1.95627 v -3.15855 h -8.00847 v 3.15855 h 1.95626 v 7.94735 h -1.95626 v 3.15856 h 8.00847 v -3.15856 h -1.95627 z m 16.62829,0 h 1.79325 v -3.15855 h -6.92846 v 3.15855 h 1.9359 v 4.36085 l -4.76841,-7.5194 h -6.09296 v 3.15855 h 1.99702 v 7.94735 h -1.99702 v 3.15856 h 7.13223 v -3.15856 h -2.03778 v -5.09445 l 5.23709,8.25301 h 3.7699 z m 16.46527,0 h 1.79325 v -3.15855 h -6.92845 v 3.15855 h 1.93589 v 4.36085 l -4.76841,-7.5194 h -6.09296 v 3.15855 h 1.99702 v 7.94735 h -1.99702 v 3.15856 h 7.13223 v -3.15856 h -2.03778 v -5.09445 l 5.23709,8.25301 h 3.7699 z m 8.90512,-3.24007 c -4.56463,0 -7.11185,3.48461 -7.11185,7.21375 0,3.72913 2.54722,7.21374 7.11185,7.21374 4.56463,0 7.11185,-3.48461 7.11185,-7.21374 0,-3.72914 -2.54722,-7.21375 -7.11185,-7.21375 z m 0,3.13819 c 2.11929,0 2.44534,2.09891 2.44534,4.07556 0,1.97664 -0.32605,4.07556 -2.44534,4.07556 -2.11929,0 -2.44534,-1.87476 -2.44534,-4.07556 0,-2.20081 0.32605,-4.07556 2.44534,-4.07556 z m 7.00997,0.10188 h 1.12078 l 3.97367,11.10591 h 3.56611 l 3.97367,-11.10591 h 1.05965 v -3.15855 h -6.1541 v 3.15855 H 426.12 l -1.81362,5.46125 -1.79325,-5.46125 h 1.63023 v -3.15855 h -7.23412 z m 11.14663,11.10591 h 6.76543 v -3.15856 h -1.89513 l 0.40756,-1.1004 h 3.68838 l 0.42793,1.1004 h -1.89513 v 3.15856 h 7.90658 v -3.15856 h -1.69136 l -4.23858,-11.1059 h -3.72914 l -4.23858,11.1059 h -1.50796 z m 7.13223,-9.0885 0.85587,2.28231 h -1.73211 z m 6.2356,1.08002 h 2.97516 c 0,-0.93738 0.1834,-2.99554 1.44683,-3.03629 h 0.32604 v 7.88621 h -1.95627 v 3.15856 h 8.00848 v -3.15856 h -1.95627 v -7.88621 h 0.32604 c 1.26343,0.0408 1.44683,2.09891 1.44683,3.03629 h 2.97516 v -6.25598 h -13.592 z m 14.20336,-3.09743 h 1.95627 v 7.94735 h -1.95627 v 3.15856 h 13.81615 v -6.21523 h -2.89365 c 0,1.6506 -1.22267,3.05667 -2.66949,3.05667 h -2.20081 v -2.28232 h 2.62874 v -3.38271 h -2.62874 v -2.28232 h 2.20081 c 1.44682,0 2.66949,1.40607 2.66949,3.05667 h 2.89365 v -6.21522 h -13.81615 z"
       id="text551"
       style="-inkscape-font-specification:'HWT Slab Antique, Normal';fill:#15777d;stroke-width:0.283465"
       transform="scale(1.0008298,-0.99917089)"
       aria-label="CREATE LEARN INNOVATE" />
  </g>
</svg>
